M48
;DRILL file {KiCad 4.0.2-stable} date 4/19/2016 3:46:22 PM
;FORMAT={2:4/ absolute / inch / suppress trailing zeros}
FMAT,2
INCH,LZ
T1C0.013
T2C0.020
T3C0.020
T4C0.026
T5C0.030
T6C0.035
T7C0.036
T8C0.040
T9C0.043
T10C0.060
T11C0.071
T12C0.102
T13C0.120
T14C0.126
%
G90
G05
M72
T1
X075241Y-027892
X075241Y-028483
X075241Y-029073
X075831Y-027892
X075831Y-028483
X075831Y-029073
T2
X024055Y-019
X024055Y-053
X024332Y-018332
X024332Y-019668
X024332Y-052332
X024332Y-053668
X025Y-018055
X025Y-019945
X025Y-052055
X025Y-053945
X025668Y-018332
X025668Y-019668
X025668Y-052332
X025668Y-053668
X025945Y-019
X025945Y-053
X059055Y-019
X059055Y-053
X059332Y-018332
X059332Y-019668
X059332Y-052332
X059332Y-053668
X06Y-018055
X06Y-019945
X06Y-052055
X06Y-053945
X060668Y-018332
X060668Y-019668
X060668Y-052332
X060668Y-053668
X060945Y-019
X060945Y-053
X093055Y-019
X093055Y-053
X093332Y-018332
X093332Y-019668
X093332Y-052332
X093332Y-053668
X094Y-018055
X094Y-019945
X094Y-052055
X094Y-053945
X094668Y-018332
X094668Y-019668
X094668Y-052332
X094668Y-053668
X094945Y-019
X094945Y-053
T3
X0235Y-041
X0235Y-0415
X0235Y-0455
X0235Y-046
X02415Y-03685
X02425Y-041
X02425Y-0415
X02425Y-0455
X02425Y-046
X0246Y-0407
X025Y-041
X025Y-0415
X025Y-0455
X025Y-046
X025205Y-048895
X02525Y-0315
X02525Y-03525
X025685Y-04418
X02575Y-02325
X02575Y-0285
X02575Y-041
X02575Y-0415
X02575Y-0455
X02575Y-046025
X0262Y-0493
X0263Y-04475
X0267Y-03875
X02675Y-051
X02685Y-038075
X02715Y-0384
X0275Y-02325
X0275Y-0285
X02775Y-048
X0282Y-0474
X0285Y-04185
X02905Y-0444
X02925Y-02325
X02925Y-02775
X02945Y-04665
X0297Y-03335
X0302Y-0394
X03025Y-0483
X030625Y-027061
X03065Y-02505
X030829Y-026599
X0309Y-02465
X031Y-04085
X03103Y-0263
X03145Y-03955
X03175Y-02585
X031855Y-045745
X031899Y-025434
X03194Y-03455
X03215Y-0404
X032325Y-0297
X03255Y-03828
X03265Y-02944
X0327Y-03415
X0328Y-03755
X032806Y-038557
X033Y-03795
X033Y-04135
X033125Y-029075
X033156Y-038759
X03325Y-04665
X033274Y-02845
X03329Y-02809
X03335Y-0258
X03335Y-03015
X033725Y-03005
X033775Y-035075
X03393Y-038135
X03395Y-037495
X034Y-03685
X03418Y-03067
X03465Y-023
X03465Y-031075
X03465Y-03276
X03466Y-03237
X03485Y-0388
X03485Y-0443
X034975Y-03545
X034995Y-034855
X03525Y-02987
X03536Y-03236
X03539Y-03275
X03542Y-03129
X03545Y-04015
X03565Y-0278
X035687Y-029713
X035787Y-037519
X0358Y-03125
X0358Y-0332
X035843Y-037875
X0359Y-04355
X03595Y-04205
X03638Y-03306
X03675Y-03336
X036873Y-03295
X036925Y-042525
X036942Y-04135
X03695Y-0344
X03695Y-037625
X03695Y-03815
X036975Y-037225
X03705Y-026947
X03705Y-0298
X0371Y-0435
X03715Y-02365
X03715Y-04165
X03745Y-03775
X03746Y-03268
X037487Y-033733
X0375Y-0315
X0375Y-04575
X037511Y-039949
X037571Y-032337
X037675Y-038655
X0377Y-0417
X03795Y-03675
X038003Y-030913
X03815Y-0341
X0383Y-038575
X0385Y-0248
X038516Y-033749
X0386Y-02175
X0387Y-041175
X0387Y-0457
X038772Y-034064
X03905Y-04145
X039115Y-039929
X03925Y-0423
X039422Y-033801
X03969Y-03261
X039724Y-034251
X0398Y-03605
X0398Y-037
X039859Y-02807
X0399Y-0318
X03995Y-04
X040025Y-035769
X040025Y-036719
X04007Y-032508
X040091Y-038906
X04035Y-0501
X040378Y-030872
X04045Y-034
X0405Y-0278
X04055Y-04065
X040797Y-038753
X041044Y-028065
X041451Y-026778
X0417Y-04605
X04175Y-04175
X04175Y-04275
X0419Y-04025
X0421Y-03445
X0421Y-0384
X04225Y-026813
X04225Y-03275
X0424Y-042742
X04246Y-04464
X0425Y-0261
X0425Y-031
X0432Y-035
X04325Y-04875
X043396Y-03984
X0434Y-0326
X04345Y-0247
X0435Y-032
X0435Y-0439
X04358Y-04101
X0438Y-03959
X04387Y-04071
X044055Y-035349
X044213Y-045068
X044493Y-0319
X0445Y-0444
X04455Y-02735
X04465Y-03765
X04475Y-046575
X04505Y-0336
X04515Y-03429
X045172Y-038328
X04525Y-04575
X0458Y-0273
X045922Y-039078
X046Y-044375
X0461Y-0331
X04623Y-044098
X046468Y-0438
X04657Y-03773
X0466Y-0247
X046635Y-036485
X04675Y-04355
X04703Y-03886
X047037Y-036308
X04705Y-02815
X047094Y-036788
X04711Y-03922
X047173Y-043415
X04732Y-03597
X047394Y-036986
X047857Y-036699
X04788Y-03608
X048136Y-028314
X048368Y-036504
X048639Y-036267
X048831Y-036847
X049287Y-04024
X04945Y-03865
X05005Y-0273
X05015Y-02675
X05055Y-02545
X0508Y-026
X0509Y-04135
X051Y-04025
X051525Y-044775
X051975Y-045675
X0535Y-0265
X0548Y-0366
X05485Y-03795
X056Y-03955
X057Y-02374
X057Y-02524
X057Y-02675
X05745Y-0458
X0587Y-0365
X05875Y-02375
X05875Y-02525
X0594Y-0499
X05955Y-04755
X06171Y-04475
X06175Y-0455
X06215Y-03675
X0629Y-04695
X0634Y-04635
X0679Y-0448
X06825Y-0455
X0692Y-03715
X0698Y-046425
X0701Y-02355
X0704Y-02435
X0717Y-03445
X0717Y-0356
X07195Y-02455
X0722Y-0356
X072201Y-034451
X07235Y-0237
X07275Y-03445
X07275Y-0356
X07325Y-02575
X07375Y-027
X0745Y-0447
X0745Y-0455
X07525Y-02725
X07525Y-02975
X075475Y-031775
X075475Y-032525
X0755Y-03045
X07585Y-02725
X07585Y-02975
X07635Y-0463
X07725Y-027
X07775Y-02575
X0783Y-03445
X0783Y-0356
X07885Y-03445
X07885Y-0356
X0794Y-03445
X0794Y-0356
X08105Y-0447
X08125Y-0455
X08285Y-04635
X0844Y-0394
X0873Y-0447
X0875Y-0455
X08915Y-03135
X08915Y-04635
X08935Y-03465
T4
X024Y-03785
X024Y-03835
X0245Y-03785
X0245Y-03835
X025Y-03785
X025Y-03835
X0255Y-03785
X0255Y-03835
X026Y-03785
X026Y-03835
T5
X02825Y-0185
X02825Y-05275
X028775Y-035909
X03Y-031225
X0305Y-05275
X034466Y-030111
X035Y-05275
X038426Y-030728
X04015Y-054
X04715Y-04705
X04715Y-0478
X04715Y-04855
X04715Y-0493
X04715Y-05005
X04775Y-034
X04875Y-03075
X051Y-03375
X0535Y-03175
X05365Y-04705
X05365Y-0478
X05365Y-04855
X05365Y-0493
X05365Y-05005
X05475Y-027999
X05725Y-01875
X05825Y-03075
X061575Y-042925
X062239Y-054239
X06225Y-01875
X0658Y-044525
X0667Y-0464
X0672Y-0523
X06725Y-04975
X067475Y-04545
X0675Y-0438
X067975Y-0429
X072Y-0289
X072Y-03105
X07225Y-0445
X073Y-020079
X073Y-021
X073Y-022
X073Y-023
X07315Y-0463
X0733Y-03005
X0735Y-024
X07355Y-05225
X073587Y-017764
X07375Y-04975
X073925Y-0453
X07405Y-0437
X0745Y-024
X0746Y-04295
X07475Y-035
X07475Y-03575
X07525Y-018
X0755Y-024
X0755Y-035
X0755Y-03575
X07625Y-035
X07625Y-03575
X0765Y-024
X0775Y-024
X07785Y-03005
X078Y-02
X078Y-021
X078Y-022
X078Y-023
X07875Y-04445
X079Y-0289
X079Y-03105
X07965Y-0463
X08Y-0495
X0802Y-0523
X0804Y-0453
X0805Y-0437
X080925Y-04295
X082375Y-0231
X08355Y-02395
X08485Y-023
X08525Y-04445
X08527Y-01955
X08615Y-0463
X08675Y-05
X0869Y-0453
X08695Y-04375
X08725Y-05225
X087375Y-0429
X088Y-03575
X088Y-0365
X0885Y-03575
X0885Y-0365
X08994Y-020495
X0915Y-0445
X0924Y-04635
X09325Y-0453
X09335Y-04375
X094Y-023
X094Y-027
X094Y-031
X094Y-035
X094Y-03925
T6
X035539Y-029209
X036539Y-029209
X037539Y-029209
X038539Y-029209
X039539Y-029209
X040539Y-029209
X041539Y-029209
X042539Y-029209
X043539Y-029209
X044539Y-029209
X045539Y-029209
X046539Y-029209
X047539Y-029209
X048539Y-029209
X049539Y-029209
X050539Y-029209
X051539Y-029209
X052539Y-029209
X053539Y-029209
X054539Y-029209
T7
X09075Y-02625
X09075Y-02725
X09075Y-02825
X09075Y-02925
X09075Y-03025
X09075Y-03125
X09075Y-03225
X09075Y-03325
X09075Y-03425
X09075Y-03525
X09175Y-02625
X09175Y-02725
X09175Y-02825
X09175Y-02925
X09175Y-03025
X09175Y-03125
X09175Y-03225
X09175Y-03325
X09175Y-03425
X09175Y-03525
T8
X0328Y-0213
X03335Y-020184
X0339Y-0213
X03445Y-020184
X03495Y-0213
X0355Y-020184
X03605Y-0213
X0366Y-020184
X03715Y-0213
X04045Y-02535
X04045Y-02635
X0478Y-021316
X04835Y-0202
X0489Y-021316
X04945Y-0202
X04995Y-021316
X0505Y-0202
X05105Y-021316
X0516Y-0202
X05215Y-021316
X05475Y-02325
X05475Y-02425
X05805Y-0402
X05805Y-0412
X063Y-01975
X063Y-02075
X063Y-02175
X063Y-02275
X063Y-02375
X064Y-01975
X064Y-02075
X064Y-02175
X064Y-02275
X064Y-02375
T9
X031057Y-049618
X031057Y-050799
X032238Y-049618
X032238Y-050799
X033419Y-049618
X033419Y-050799
X0346Y-049618
X0346Y-050799
X035781Y-049618
X035781Y-050799
X036962Y-049618
X036962Y-050799
X038143Y-049618
X038143Y-050799
T10
X0525Y-03775
X057Y-0385
X080522Y-019038
X08835Y-0404
T11
X0565Y-048167
X0565Y-050333
X063805Y-048167
X063805Y-050333
X065576Y-048167
X065576Y-050333
X065933Y-021551
X065933Y-023717
X067705Y-021551
X067705Y-023717
X070305Y-048167
X070305Y-050333
X072076Y-048167
X072076Y-050333
X076805Y-048167
X076805Y-050333
X078576Y-048167
X078576Y-050333
X083305Y-048167
X083305Y-050333
X085076Y-048167
X085076Y-050333
X089614Y-048167
X089614Y-050333
X091386Y-048167
X091386Y-050333
T12
X030079Y-0298
X030079Y-037083
X06Y-0298
X06Y-037083
T13
X03Y-020684
X04Y-020684
X045Y-0207
X055Y-0207
T14
X025Y-019
X025Y-053
X06Y-019
X06Y-053
X094Y-019
X094Y-053
T0
M30
