G04 #@! TF.FileFunction,Paste,Top*
%FSLAX46Y46*%
G04 Gerber Fmt 4.6, Leading zero omitted, Abs format (unit mm)*
G04 Created by KiCad (PCBNEW 4.0.2-stable) date 4/21/2016 11:29:13 AM*
%MOMM*%
G01*
G04 APERTURE LIST*
%ADD10C,0.100000*%
%ADD11R,1.700000X0.900000*%
%ADD12R,0.800100X0.800100*%
%ADD13R,1.500000X0.280000*%
%ADD14R,0.280000X1.500000*%
%ADD15R,0.750000X0.800000*%
%ADD16R,0.800000X0.750000*%
%ADD17R,1.250000X1.000000*%
%ADD18R,1.198880X1.198880*%
%ADD19R,0.500000X0.900000*%
%ADD20R,0.900000X0.500000*%
%ADD21R,1.600000X2.000000*%
%ADD22R,2.000000X1.600000*%
%ADD23R,1.500000X0.450000*%
%ADD24R,1.550000X0.600000*%
%ADD25R,2.400300X4.000500*%
%ADD26R,4.000500X2.400300*%
%ADD27R,1.000000X1.600000*%
%ADD28R,1.000000X1.250000*%
%ADD29R,4.000500X1.600200*%
%ADD30R,3.299460X2.499360*%
%ADD31R,2.499360X2.301240*%
%ADD32R,1.651000X3.048000*%
%ADD33R,6.096000X6.096000*%
%ADD34R,0.650000X1.060000*%
%ADD35R,10.800000X9.400000*%
%ADD36R,1.390000X4.600000*%
%ADD37R,1.897380X1.173480*%
%ADD38R,1.897380X2.374900*%
%ADD39R,2.100580X1.473200*%
%ADD40R,1.379220X0.449580*%
%ADD41R,2.500000X4.600000*%
%ADD42R,15.880000X9.400000*%
%ADD43R,1.200000X1.400000*%
%ADD44R,0.398780X0.749300*%
%ADD45R,0.749300X0.398780*%
%ADD46R,2.500000X1.000000*%
%ADD47R,1.000000X2.500000*%
%ADD48R,4.000000X5.000000*%
%ADD49R,1.700000X1.000000*%
%ADD50R,1.678940X0.800100*%
%ADD51R,1.300480X1.290320*%
%ADD52R,1.699260X1.501140*%
%ADD53R,1.501140X1.699260*%
%ADD54R,1.399540X1.290320*%
%ADD55R,1.501140X1.600200*%
%ADD56R,5.400040X5.000000*%
%ADD57R,1.450000X0.450000*%
%ADD58R,3.400000X5.000000*%
G04 APERTURE END LIST*
D10*
D11*
X98933000Y-64844000D03*
X98933000Y-67744000D03*
D12*
X126634240Y-114366000D03*
X126634240Y-116266000D03*
X128633220Y-115316000D03*
D13*
X92430000Y-86202000D03*
X92430000Y-86702000D03*
X92430000Y-87202000D03*
X92430000Y-87702000D03*
X92430000Y-88202000D03*
X92430000Y-88702000D03*
X92430000Y-89202000D03*
X92430000Y-89702000D03*
X92430000Y-90202000D03*
X92430000Y-90702000D03*
X92430000Y-91202000D03*
X92430000Y-91702000D03*
X92430000Y-92202000D03*
X92430000Y-92702000D03*
X92430000Y-93202000D03*
X92430000Y-93702000D03*
X92430000Y-94202000D03*
X92430000Y-94702000D03*
X92430000Y-95202000D03*
X92430000Y-95702000D03*
X92430000Y-96202000D03*
X92430000Y-96702000D03*
X92430000Y-97202000D03*
X92430000Y-97702000D03*
X92430000Y-98202000D03*
D14*
X94330000Y-100102000D03*
X94830000Y-100102000D03*
X95330000Y-100102000D03*
X95830000Y-100102000D03*
X96330000Y-100102000D03*
X96830000Y-100102000D03*
X97330000Y-100102000D03*
X97830000Y-100102000D03*
X98330000Y-100102000D03*
X98830000Y-100102000D03*
X99330000Y-100102000D03*
X99830000Y-100102000D03*
X100330000Y-100102000D03*
X100830000Y-100102000D03*
X101330000Y-100102000D03*
X101830000Y-100102000D03*
X102330000Y-100102000D03*
X102830000Y-100102000D03*
X103330000Y-100102000D03*
X103830000Y-100102000D03*
X104330000Y-100102000D03*
X104830000Y-100102000D03*
X105330000Y-100102000D03*
X105830000Y-100102000D03*
X106330000Y-100102000D03*
D13*
X108230000Y-98202000D03*
X108230000Y-97702000D03*
X108230000Y-97202000D03*
X108230000Y-96702000D03*
X108230000Y-96202000D03*
X108230000Y-95702000D03*
X108230000Y-95202000D03*
X108230000Y-94702000D03*
X108230000Y-94202000D03*
X108230000Y-93702000D03*
X108230000Y-93202000D03*
X108230000Y-92702000D03*
X108230000Y-92202000D03*
X108230000Y-91702000D03*
X108230000Y-91202000D03*
X108230000Y-90702000D03*
X108230000Y-90202000D03*
X108230000Y-89702000D03*
X108230000Y-89202000D03*
X108230000Y-88702000D03*
X108230000Y-88202000D03*
X108230000Y-87702000D03*
X108230000Y-87202000D03*
X108230000Y-86702000D03*
X108230000Y-86202000D03*
D14*
X106330000Y-84302000D03*
X105830000Y-84302000D03*
X105330000Y-84302000D03*
X104830000Y-84302000D03*
X104330000Y-84302000D03*
X103830000Y-84302000D03*
X103330000Y-84302000D03*
X102830000Y-84302000D03*
X102330000Y-84302000D03*
X101830000Y-84302000D03*
X101330000Y-84302000D03*
X100830000Y-84302000D03*
X100330000Y-84302000D03*
X99830000Y-84302000D03*
X99330000Y-84302000D03*
X98830000Y-84302000D03*
X98330000Y-84302000D03*
X97830000Y-84302000D03*
X97330000Y-84302000D03*
X96830000Y-84302000D03*
X96330000Y-84302000D03*
X95830000Y-84302000D03*
X95330000Y-84302000D03*
X94830000Y-84302000D03*
X94330000Y-84302000D03*
D15*
X130810000Y-116066000D03*
X130810000Y-114566000D03*
D16*
X83427000Y-99187000D03*
X81927000Y-99187000D03*
X100596000Y-102362000D03*
X102096000Y-102362000D03*
D17*
X87630000Y-91583000D03*
X87630000Y-93583000D03*
D18*
X163863020Y-118999000D03*
X161764980Y-118999000D03*
X180373020Y-118999000D03*
X178274980Y-118999000D03*
X196883020Y-118999000D03*
X194784980Y-118999000D03*
X213393020Y-118999000D03*
X211294980Y-118999000D03*
X229268020Y-118999000D03*
X227169980Y-118999000D03*
D19*
X139815000Y-65405000D03*
X138315000Y-65405000D03*
D20*
X77470000Y-81292000D03*
X77470000Y-82792000D03*
X77470000Y-88253000D03*
X77470000Y-86753000D03*
D19*
X105017000Y-70612000D03*
X103517000Y-70612000D03*
X101969000Y-70612000D03*
X100469000Y-70612000D03*
D20*
X66040000Y-100342000D03*
X66040000Y-101842000D03*
X64008000Y-100342000D03*
X64008000Y-101842000D03*
X61976000Y-100342000D03*
X61976000Y-101842000D03*
D19*
X64516000Y-106934000D03*
X66016000Y-106934000D03*
D20*
X106934000Y-67322000D03*
X106934000Y-68822000D03*
X106680000Y-62750000D03*
X106680000Y-64250000D03*
D19*
X115836000Y-61976000D03*
X117336000Y-61976000D03*
X117844000Y-70485000D03*
X116344000Y-70485000D03*
D20*
X108839000Y-64250000D03*
X108839000Y-62750000D03*
X161798000Y-111391000D03*
X161798000Y-112891000D03*
X177927000Y-111264000D03*
X177927000Y-112764000D03*
X157988000Y-116979000D03*
X157988000Y-118479000D03*
X174117000Y-116979000D03*
X174117000Y-118479000D03*
X159766000Y-111391000D03*
X159766000Y-112891000D03*
X175895000Y-111264000D03*
X175895000Y-112764000D03*
D19*
X167374000Y-118999000D03*
X165874000Y-118999000D03*
X183884000Y-118999000D03*
X182384000Y-118999000D03*
D20*
X194564000Y-111264000D03*
X194564000Y-112764000D03*
X211074000Y-111264000D03*
X211074000Y-112764000D03*
X190627000Y-116979000D03*
X190627000Y-118479000D03*
X207264000Y-116979000D03*
X207264000Y-118479000D03*
X192532000Y-111276000D03*
X192532000Y-112776000D03*
X209169000Y-111264000D03*
X209169000Y-112764000D03*
D19*
X200394000Y-118999000D03*
X198894000Y-118999000D03*
X216904000Y-118999000D03*
X215404000Y-118999000D03*
D20*
X226822000Y-111264000D03*
X226822000Y-112764000D03*
X223012000Y-116979000D03*
X223012000Y-118479000D03*
X224917000Y-111264000D03*
X224917000Y-112764000D03*
D19*
X232767000Y-118999000D03*
X231267000Y-118999000D03*
X113145000Y-117221000D03*
X111645000Y-117221000D03*
X100001422Y-117221000D03*
X101501422Y-117221000D03*
X101461000Y-113411000D03*
X99961000Y-113411000D03*
X80911000Y-117221000D03*
X82411000Y-117221000D03*
X82411000Y-113411000D03*
X80911000Y-113411000D03*
X93841000Y-117221000D03*
X92341000Y-117221000D03*
X103771000Y-123825000D03*
X105271000Y-123825000D03*
X92341000Y-113411000D03*
X93841000Y-113411000D03*
D11*
X115697000Y-124206000D03*
X115697000Y-127106000D03*
D19*
X64020000Y-125222000D03*
X65520000Y-125222000D03*
X65520000Y-121412000D03*
X64020000Y-121412000D03*
D20*
X66929000Y-128639000D03*
X66929000Y-127139000D03*
X70739000Y-127139000D03*
X70739000Y-128639000D03*
X106045000Y-80415000D03*
X106045000Y-81915000D03*
D19*
X118860000Y-94615000D03*
X117360000Y-94615000D03*
D20*
X85217000Y-96278000D03*
X85217000Y-97778000D03*
D19*
X111010000Y-101600000D03*
X112510000Y-101600000D03*
X72759000Y-112776000D03*
X71259000Y-112776000D03*
D20*
X94742000Y-102247000D03*
X94742000Y-103747000D03*
X96774000Y-102247000D03*
X96774000Y-103747000D03*
D19*
X99937000Y-105918000D03*
X98437000Y-105918000D03*
D20*
X96774000Y-106795000D03*
X96774000Y-105295000D03*
D21*
X72771000Y-104046000D03*
X72771000Y-98646000D03*
D22*
X64450000Y-81280000D03*
X69850000Y-81280000D03*
X64450000Y-88265000D03*
X69850000Y-88265000D03*
D23*
X117138999Y-68490000D03*
X117138999Y-67840000D03*
X117138999Y-67190000D03*
X117138999Y-66540000D03*
X117138999Y-65890000D03*
X117138999Y-65240000D03*
X117138999Y-64590000D03*
X117138999Y-63940000D03*
X111238999Y-63940000D03*
X111238999Y-64590000D03*
X111238999Y-65240000D03*
X111238999Y-65890000D03*
X111238999Y-66540000D03*
X111238999Y-67190000D03*
X111238999Y-67840000D03*
X111238999Y-68490000D03*
D24*
X135349000Y-102489000D03*
X135349000Y-103759000D03*
X135349000Y-105029000D03*
X135349000Y-106299000D03*
X140749000Y-106299000D03*
X140749000Y-105029000D03*
X140749000Y-103759000D03*
X140749000Y-102489000D03*
X90632333Y-64942000D03*
X90632333Y-66212000D03*
X90632333Y-67482000D03*
X90632333Y-68752000D03*
X96032333Y-68752000D03*
X96032333Y-67482000D03*
X96032333Y-66212000D03*
X96032333Y-64942000D03*
D15*
X67945000Y-106795000D03*
X67945000Y-105295000D03*
X227457000Y-78613000D03*
X227457000Y-77113000D03*
D16*
X62345000Y-92633800D03*
X60845000Y-92633800D03*
D15*
X79629000Y-66028000D03*
X79629000Y-64528000D03*
D17*
X85725000Y-67929000D03*
X85725000Y-65929000D03*
D25*
X220980000Y-93789500D03*
X220980000Y-101790500D03*
D26*
X204279500Y-58420000D03*
X212280500Y-58420000D03*
D16*
X181725000Y-61595000D03*
X180225000Y-61595000D03*
X198767000Y-48133000D03*
X200267000Y-48133000D03*
D27*
X190476000Y-66675000D03*
X187476000Y-66675000D03*
X196064000Y-66675000D03*
X193064000Y-66675000D03*
D16*
X184785000Y-66675000D03*
X183285000Y-66675000D03*
X198640000Y-66675000D03*
X200140000Y-66675000D03*
D15*
X175514000Y-71640000D03*
X175514000Y-73140000D03*
X208280000Y-71640000D03*
X208280000Y-73140000D03*
D28*
X178705000Y-83058000D03*
X180705000Y-83058000D03*
X178705000Y-80518000D03*
X180705000Y-80518000D03*
D29*
X177289460Y-88900000D03*
X183390540Y-88900000D03*
D28*
X195310000Y-76581000D03*
X193310000Y-76581000D03*
D29*
X206377540Y-88900000D03*
X200276460Y-88900000D03*
D28*
X204835000Y-83185000D03*
X202835000Y-83185000D03*
X204835000Y-80645000D03*
X202835000Y-80645000D03*
D16*
X188861000Y-78740000D03*
X190361000Y-78740000D03*
X194552000Y-78740000D03*
X193052000Y-78740000D03*
D15*
X108839000Y-67322000D03*
X108839000Y-68822000D03*
D16*
X121019000Y-67310000D03*
X119519000Y-67310000D03*
X114669000Y-70485000D03*
X113169000Y-70485000D03*
X119519000Y-64770000D03*
X121019000Y-64770000D03*
X121019000Y-62865000D03*
X119519000Y-62865000D03*
D17*
X130810000Y-105394000D03*
X130810000Y-103394000D03*
D15*
X127889000Y-103112000D03*
X127889000Y-101612000D03*
X132842000Y-105144000D03*
X132842000Y-103644000D03*
X87884000Y-67679000D03*
X87884000Y-66179000D03*
X75438000Y-81292000D03*
X75438000Y-82792000D03*
X75438000Y-88253000D03*
X75438000Y-86753000D03*
X157988000Y-115177000D03*
X157988000Y-113677000D03*
X174117000Y-115177000D03*
X174117000Y-113677000D03*
X190627000Y-115177000D03*
X190627000Y-113677000D03*
X207264000Y-115177000D03*
X207264000Y-113677000D03*
X223012000Y-115177000D03*
X223012000Y-113677000D03*
D16*
X107835000Y-111506000D03*
X109335000Y-111506000D03*
X113145000Y-111506000D03*
X111645000Y-111506000D03*
X101473000Y-115316000D03*
X99973000Y-115316000D03*
X111645000Y-115316000D03*
X113145000Y-115316000D03*
X71640000Y-119507000D03*
X73140000Y-119507000D03*
X82411000Y-115316000D03*
X80911000Y-115316000D03*
X88531000Y-111506000D03*
X90031000Y-111506000D03*
D15*
X104013000Y-125996000D03*
X104013000Y-127496000D03*
D16*
X92341000Y-115316000D03*
X93841000Y-115316000D03*
X76823000Y-121412000D03*
X75323000Y-121412000D03*
X112891000Y-123825000D03*
X111391000Y-123825000D03*
X65520000Y-123317000D03*
X64020000Y-123317000D03*
X93841000Y-111506000D03*
X92341000Y-111506000D03*
D15*
X68834000Y-127139000D03*
X68834000Y-128639000D03*
X115570000Y-96405000D03*
X115570000Y-97905000D03*
D16*
X83058000Y-89154000D03*
X84558000Y-89154000D03*
D15*
X89789000Y-97143000D03*
X89789000Y-95643000D03*
D17*
X87630000Y-97393000D03*
X87630000Y-95393000D03*
D15*
X111252000Y-99556000D03*
X111252000Y-98056000D03*
X107188000Y-105537000D03*
X107188000Y-104037000D03*
D17*
X113284000Y-99679000D03*
X113284000Y-97679000D03*
D16*
X83427000Y-101473000D03*
X81927000Y-101473000D03*
X98438524Y-81669000D03*
X96938524Y-81669000D03*
D15*
X89797000Y-91760476D03*
X89797000Y-93260476D03*
X111252000Y-87110000D03*
X111252000Y-85610000D03*
D28*
X98536000Y-79502000D03*
X96536000Y-79502000D03*
D17*
X113284000Y-87360000D03*
X113284000Y-85360000D03*
D28*
X101870000Y-104902000D03*
X103870000Y-104902000D03*
D27*
X101370000Y-107442000D03*
X104370000Y-107442000D03*
D15*
X94742000Y-106795000D03*
X94742000Y-105295000D03*
D16*
X105398000Y-102362000D03*
X103898000Y-102362000D03*
D15*
X98679000Y-103874000D03*
X98679000Y-102374000D03*
X89789000Y-90031000D03*
X89789000Y-88531000D03*
X111252000Y-88785000D03*
X111252000Y-90285000D03*
D16*
X100596000Y-81661000D03*
X102096000Y-81661000D03*
D28*
X100600000Y-79502000D03*
X102600000Y-79502000D03*
D15*
X92837000Y-105295000D03*
X92837000Y-106795000D03*
D30*
X182880000Y-69623940D03*
X182880000Y-76426060D03*
X200660000Y-69623940D03*
X200660000Y-76426060D03*
D18*
X151350980Y-57785000D03*
X153449020Y-57785000D03*
X151350980Y-62230000D03*
X153449020Y-62230000D03*
X151350980Y-66675000D03*
X153449020Y-66675000D03*
X177292000Y-63914020D03*
X177292000Y-61815980D03*
D31*
X161787840Y-106807000D03*
X157490160Y-106807000D03*
X178043840Y-106807000D03*
X173746160Y-106807000D03*
X194553840Y-106807000D03*
X190256160Y-106807000D03*
X211063840Y-106807000D03*
X206766160Y-106807000D03*
X226938840Y-106807000D03*
X222641160Y-106807000D03*
X97927160Y-120650000D03*
X102224840Y-120650000D03*
D12*
X140015000Y-67579240D03*
X138115000Y-67579240D03*
X139065000Y-69578220D03*
X145049240Y-57470000D03*
X145049240Y-59370000D03*
X147048220Y-58420000D03*
X145049240Y-61280000D03*
X145049240Y-63180000D03*
X147048220Y-62230000D03*
X145049240Y-65090000D03*
X145049240Y-66990000D03*
X147048220Y-66040000D03*
D32*
X164846000Y-115443000D03*
D33*
X167132000Y-109093000D03*
D32*
X169418000Y-115443000D03*
X181229000Y-115062000D03*
D33*
X183515000Y-108712000D03*
D32*
X185801000Y-115062000D03*
X197739000Y-115062000D03*
D33*
X200025000Y-108712000D03*
D32*
X202311000Y-115062000D03*
X214249000Y-115062000D03*
D33*
X216535000Y-108712000D03*
D32*
X218821000Y-115062000D03*
X230124000Y-115062000D03*
D33*
X232410000Y-108712000D03*
D32*
X234696000Y-115062000D03*
D19*
X163945000Y-86995000D03*
X162445000Y-86995000D03*
D20*
X205105000Y-95135000D03*
X205105000Y-96635000D03*
D19*
X163945000Y-88900000D03*
X162445000Y-88900000D03*
D20*
X207010000Y-95135000D03*
X207010000Y-96635000D03*
X187325000Y-82665000D03*
X187325000Y-81165000D03*
X196215000Y-82550000D03*
X196215000Y-81050000D03*
X177292000Y-71640000D03*
X177292000Y-73140000D03*
X206375000Y-71640000D03*
X206375000Y-73140000D03*
D19*
X188873000Y-80645000D03*
X190373000Y-80645000D03*
X194552000Y-80645000D03*
X193052000Y-80645000D03*
X188861000Y-82677000D03*
X190361000Y-82677000D03*
X194552000Y-82677000D03*
X193052000Y-82677000D03*
X134505000Y-100330000D03*
X136005000Y-100330000D03*
D20*
X132842000Y-102096000D03*
X132842000Y-100596000D03*
X132842000Y-106692000D03*
X132842000Y-108192000D03*
D19*
X139839000Y-100457000D03*
X141339000Y-100457000D03*
X89928000Y-62992000D03*
X91428000Y-62992000D03*
D20*
X87884000Y-63131000D03*
X87884000Y-64631000D03*
X87884000Y-69215000D03*
X87884000Y-70715000D03*
D19*
X95262000Y-62992000D03*
X96762000Y-62992000D03*
D20*
X149225000Y-59170000D03*
X149225000Y-57670000D03*
X149225000Y-62980000D03*
X149225000Y-61480000D03*
X149225000Y-65290000D03*
X149225000Y-66790000D03*
D19*
X181725000Y-63500000D03*
X180225000Y-63500000D03*
D20*
X131191000Y-77966000D03*
X131191000Y-76466000D03*
D34*
X159832000Y-116543000D03*
X160782000Y-116543000D03*
X161732000Y-116543000D03*
X161732000Y-114343000D03*
X159832000Y-114343000D03*
X175961000Y-116416000D03*
X176911000Y-116416000D03*
X177861000Y-116416000D03*
X177861000Y-114216000D03*
X175961000Y-114216000D03*
X192598000Y-116416000D03*
X193548000Y-116416000D03*
X194498000Y-116416000D03*
X194498000Y-114216000D03*
X192598000Y-114216000D03*
X209235000Y-116416000D03*
X210185000Y-116416000D03*
X211135000Y-116416000D03*
X211135000Y-114216000D03*
X209235000Y-114216000D03*
X224983000Y-116416000D03*
X225933000Y-116416000D03*
X226883000Y-116416000D03*
X226883000Y-114216000D03*
X224983000Y-114216000D03*
D24*
X103980000Y-113411000D03*
X103980000Y-114681000D03*
X103980000Y-115951000D03*
X103980000Y-117221000D03*
X109380000Y-117221000D03*
X109380000Y-115951000D03*
X109380000Y-114681000D03*
X109380000Y-113411000D03*
X84676000Y-113411000D03*
X84676000Y-114681000D03*
X84676000Y-115951000D03*
X84676000Y-117221000D03*
X90076000Y-117221000D03*
X90076000Y-115951000D03*
X90076000Y-114681000D03*
X90076000Y-113411000D03*
X67785000Y-121412000D03*
X67785000Y-122682000D03*
X67785000Y-123952000D03*
X67785000Y-125222000D03*
X73185000Y-125222000D03*
X73185000Y-123952000D03*
X73185000Y-122682000D03*
X73185000Y-121412000D03*
D12*
X117109240Y-96205000D03*
X117109240Y-98105000D03*
X119108220Y-97155000D03*
D27*
X179475000Y-59436000D03*
X182475000Y-59436000D03*
D16*
X211340000Y-99060000D03*
X212840000Y-99060000D03*
D27*
X213360000Y-101600000D03*
X210360000Y-101600000D03*
D35*
X191770000Y-54870000D03*
D36*
X189230000Y-45720000D03*
X194310000Y-45720000D03*
D37*
X58420000Y-109651800D03*
X58420000Y-111328200D03*
D38*
X58420000Y-113403380D03*
X58420000Y-107576620D03*
D39*
X60718700Y-112951260D03*
X60718700Y-108028740D03*
D40*
X61079380Y-109189520D03*
X61079380Y-109839760D03*
X61079380Y-110490000D03*
X61079380Y-111140240D03*
X61079380Y-111790480D03*
D41*
X130516000Y-132588000D03*
D42*
X128016000Y-123438000D03*
D41*
X125476000Y-132588000D03*
D43*
X85306000Y-99357000D03*
X85306000Y-101557000D03*
X86906000Y-99357000D03*
X86906000Y-101557000D03*
D44*
X226298760Y-88960960D03*
X226949000Y-88960960D03*
X227599240Y-88960960D03*
X227599240Y-87061040D03*
X226949000Y-87061040D03*
X226298760Y-87061040D03*
D45*
X95310960Y-60721240D03*
X95310960Y-60071000D03*
X95310960Y-59420760D03*
X93411040Y-59420760D03*
X93411040Y-60071000D03*
X93411040Y-60721240D03*
D44*
X64373760Y-111058960D03*
X65024000Y-111058960D03*
X65674240Y-111058960D03*
X65674240Y-109159040D03*
X65024000Y-109159040D03*
X64373760Y-109159040D03*
D17*
X69723000Y-111172500D03*
X69723000Y-109172500D03*
D46*
X83820000Y-94210000D03*
X83820000Y-91210000D03*
D47*
X112625000Y-104775000D03*
X109625000Y-104775000D03*
D48*
X130175000Y-69855000D03*
X130175000Y-59055000D03*
D49*
X106603000Y-125984000D03*
X112903000Y-125984000D03*
X106603000Y-127254000D03*
X112903000Y-127254000D03*
D11*
X143764000Y-102817000D03*
X143764000Y-105717000D03*
D19*
X65774000Y-113665000D03*
X64274000Y-113665000D03*
D50*
X76354940Y-70187820D03*
X76354940Y-69088000D03*
X76354940Y-67988180D03*
X76354940Y-66888360D03*
X76354940Y-65786000D03*
X76354940Y-64686180D03*
X76354940Y-63586360D03*
X76354940Y-62486540D03*
D51*
X74795380Y-72242680D03*
D52*
X61595000Y-72136000D03*
D53*
X76446380Y-58938160D03*
D54*
X67396360Y-72242680D03*
D52*
X61595000Y-58638440D03*
D55*
X76446380Y-71597520D03*
D20*
X69723000Y-114058000D03*
X69723000Y-115558000D03*
D56*
X167640000Y-66675000D03*
X167640000Y-78105000D03*
X215900000Y-67437000D03*
X215900000Y-78867000D03*
D57*
X188923000Y-70395000D03*
X188923000Y-71045000D03*
X188923000Y-71695000D03*
X188923000Y-72345000D03*
X188923000Y-72995000D03*
X188923000Y-73645000D03*
X188923000Y-74295000D03*
X194823000Y-74295000D03*
X194823000Y-73645000D03*
X194823000Y-72995000D03*
X194823000Y-72345000D03*
X194823000Y-71695000D03*
X194823000Y-71045000D03*
X194823000Y-70395000D03*
D58*
X191873000Y-72345000D03*
M02*
