G04 #@! TF.FileFunction,Soldermask,Top*
%FSLAX46Y46*%
G04 Gerber Fmt 4.6, Leading zero omitted, Abs format (unit mm)*
G04 Created by KiCad (PCBNEW 4.0.2-stable) date 4/21/2016 11:29:13 AM*
%MOMM*%
G01*
G04 APERTURE LIST*
%ADD10C,0.100000*%
%ADD11R,1.852400X1.052400*%
%ADD12R,1.202400X1.202400*%
%ADD13C,1.202400*%
%ADD14R,0.952500X0.952500*%
%ADD15R,1.652400X0.432400*%
%ADD16R,0.432400X1.652400*%
%ADD17R,2.184400X2.184400*%
%ADD18O,2.184400X2.184400*%
%ADD19R,0.902400X0.952400*%
%ADD20R,0.952400X0.902400*%
%ADD21R,1.402400X1.152400*%
%ADD22C,1.652400*%
%ADD23C,3.252400*%
%ADD24R,1.351280X1.351280*%
%ADD25C,2.540000*%
%ADD26R,0.652400X1.052400*%
%ADD27R,1.052400X0.652400*%
%ADD28C,6.552400*%
%ADD29C,0.752400*%
%ADD30R,1.752400X2.152400*%
%ADD31R,2.152400X1.752400*%
%ADD32R,1.652400X0.602400*%
%ADD33R,1.702400X0.752400*%
%ADD34R,2.552700X4.152900*%
%ADD35R,4.152900X2.552700*%
%ADD36R,1.152400X1.752400*%
%ADD37R,1.152400X1.402400*%
%ADD38R,4.152900X1.752600*%
%ADD39R,3.451860X2.651760*%
%ADD40R,2.651760X2.453640*%
%ADD41R,1.803400X3.200400*%
%ADD42R,6.248400X6.248400*%
%ADD43R,0.802400X1.212400*%
%ADD44R,10.952400X9.552400*%
%ADD45R,1.542400X4.752400*%
%ADD46C,1.752400*%
%ADD47C,3.652400*%
%ADD48R,1.879600X1.879600*%
%ADD49O,1.879600X1.879600*%
%ADD50R,2.049780X1.325880*%
%ADD51R,2.049780X2.527300*%
%ADD52R,2.252980X1.625600*%
%ADD53R,1.531620X0.601980*%
%ADD54R,2.652400X4.752400*%
%ADD55R,16.032400X9.552400*%
%ADD56R,1.352400X1.552400*%
%ADD57R,0.551180X0.901700*%
%ADD58R,0.901700X0.551180*%
%ADD59R,2.652400X1.152400*%
%ADD60R,1.152400X2.652400*%
%ADD61R,4.152400X5.152400*%
%ADD62R,1.852400X1.152400*%
%ADD63R,1.831340X0.952500*%
%ADD64R,1.452880X1.442720*%
%ADD65R,1.851660X1.653540*%
%ADD66R,1.653540X1.851660*%
%ADD67R,1.551940X1.442720*%
%ADD68R,1.653540X1.752600*%
%ADD69C,3.152400*%
%ADD70R,1.676400X1.676400*%
%ADD71C,1.676400*%
%ADD72C,2.952400*%
%ADD73R,5.552440X5.152400*%
%ADD74C,3.202400*%
%ADD75R,1.876400X1.876400*%
%ADD76C,1.876400*%
%ADD77C,0.533400*%
%ADD78R,1.602400X0.602400*%
%ADD79R,3.552400X5.152400*%
G04 APERTURE END LIST*
D10*
D11*
X98933000Y-64844000D03*
X98933000Y-67744000D03*
D12*
X60960000Y-97409000D03*
D13*
X62230000Y-97409000D03*
X63500000Y-97409000D03*
X64770000Y-97409000D03*
X66040000Y-97409000D03*
X62230000Y-96139000D03*
X63500000Y-96139000D03*
X64770000Y-96139000D03*
X66040000Y-96139000D03*
X60960000Y-96139000D03*
D14*
X126634240Y-114366000D03*
X126634240Y-116266000D03*
X128633220Y-115316000D03*
D15*
X92430000Y-86202000D03*
X92430000Y-86702000D03*
X92430000Y-87202000D03*
X92430000Y-87702000D03*
X92430000Y-88202000D03*
X92430000Y-88702000D03*
X92430000Y-89202000D03*
X92430000Y-89702000D03*
X92430000Y-90202000D03*
X92430000Y-90702000D03*
X92430000Y-91202000D03*
X92430000Y-91702000D03*
X92430000Y-92202000D03*
X92430000Y-92702000D03*
X92430000Y-93202000D03*
X92430000Y-93702000D03*
X92430000Y-94202000D03*
X92430000Y-94702000D03*
X92430000Y-95202000D03*
X92430000Y-95702000D03*
X92430000Y-96202000D03*
X92430000Y-96702000D03*
X92430000Y-97202000D03*
X92430000Y-97702000D03*
X92430000Y-98202000D03*
D16*
X94330000Y-100102000D03*
X94830000Y-100102000D03*
X95330000Y-100102000D03*
X95830000Y-100102000D03*
X96330000Y-100102000D03*
X96830000Y-100102000D03*
X97330000Y-100102000D03*
X97830000Y-100102000D03*
X98330000Y-100102000D03*
X98830000Y-100102000D03*
X99330000Y-100102000D03*
X99830000Y-100102000D03*
X100330000Y-100102000D03*
X100830000Y-100102000D03*
X101330000Y-100102000D03*
X101830000Y-100102000D03*
X102330000Y-100102000D03*
X102830000Y-100102000D03*
X103330000Y-100102000D03*
X103830000Y-100102000D03*
X104330000Y-100102000D03*
X104830000Y-100102000D03*
X105330000Y-100102000D03*
X105830000Y-100102000D03*
X106330000Y-100102000D03*
D15*
X108230000Y-98202000D03*
X108230000Y-97702000D03*
X108230000Y-97202000D03*
X108230000Y-96702000D03*
X108230000Y-96202000D03*
X108230000Y-95702000D03*
X108230000Y-95202000D03*
X108230000Y-94702000D03*
X108230000Y-94202000D03*
X108230000Y-93702000D03*
X108230000Y-93202000D03*
X108230000Y-92702000D03*
X108230000Y-92202000D03*
X108230000Y-91702000D03*
X108230000Y-91202000D03*
X108230000Y-90702000D03*
X108230000Y-90202000D03*
X108230000Y-89702000D03*
X108230000Y-89202000D03*
X108230000Y-88702000D03*
X108230000Y-88202000D03*
X108230000Y-87702000D03*
X108230000Y-87202000D03*
X108230000Y-86702000D03*
X108230000Y-86202000D03*
D16*
X106330000Y-84302000D03*
X105830000Y-84302000D03*
X105330000Y-84302000D03*
X104830000Y-84302000D03*
X104330000Y-84302000D03*
X103830000Y-84302000D03*
X103330000Y-84302000D03*
X102830000Y-84302000D03*
X102330000Y-84302000D03*
X101830000Y-84302000D03*
X101330000Y-84302000D03*
X100830000Y-84302000D03*
X100330000Y-84302000D03*
X99830000Y-84302000D03*
X99330000Y-84302000D03*
X98830000Y-84302000D03*
X98330000Y-84302000D03*
X97830000Y-84302000D03*
X97330000Y-84302000D03*
X96830000Y-84302000D03*
X96330000Y-84302000D03*
X95830000Y-84302000D03*
X95330000Y-84302000D03*
X94830000Y-84302000D03*
X94330000Y-84302000D03*
D17*
X147447000Y-102108000D03*
D18*
X147447000Y-104648000D03*
D19*
X130810000Y-116066000D03*
X130810000Y-114566000D03*
D20*
X83427000Y-99187000D03*
X81927000Y-99187000D03*
X100596000Y-102362000D03*
X102096000Y-102362000D03*
D21*
X87630000Y-91583000D03*
X87630000Y-93583000D03*
D22*
X96884000Y-129030000D03*
X96884000Y-126030000D03*
X93884000Y-126030000D03*
X93884000Y-129030000D03*
X90884000Y-129030000D03*
X90884000Y-126030000D03*
D23*
X94784000Y-133350000D03*
D22*
X87884000Y-126030000D03*
X87884000Y-129030000D03*
X84884000Y-129030000D03*
X84884000Y-126030000D03*
X81884000Y-126030000D03*
X81884000Y-129030000D03*
X78884000Y-126030000D03*
X78884000Y-129030000D03*
D23*
X81084000Y-133350000D03*
D24*
X163863020Y-118999000D03*
X161764980Y-118999000D03*
X180373020Y-118999000D03*
X178274980Y-118999000D03*
X196883020Y-118999000D03*
X194784980Y-118999000D03*
X213393020Y-118999000D03*
X211294980Y-118999000D03*
X229268020Y-118999000D03*
X227169980Y-118999000D03*
D25*
X58420000Y-43180000D03*
X58420000Y-139700000D03*
X243840000Y-139700000D03*
D17*
X102743000Y-64389000D03*
D18*
X102743000Y-66929000D03*
D17*
X139065000Y-59055000D03*
D18*
X139065000Y-61595000D03*
D26*
X139815000Y-65405000D03*
X138315000Y-65405000D03*
D27*
X77470000Y-81292000D03*
X77470000Y-82792000D03*
X77470000Y-88253000D03*
X77470000Y-86753000D03*
D26*
X105017000Y-70612000D03*
X103517000Y-70612000D03*
X101969000Y-70612000D03*
X100469000Y-70612000D03*
D27*
X66040000Y-100342000D03*
X66040000Y-101842000D03*
X64008000Y-100342000D03*
X64008000Y-101842000D03*
X61976000Y-100342000D03*
X61976000Y-101842000D03*
D26*
X64516000Y-106934000D03*
X66016000Y-106934000D03*
D28*
X63500000Y-48260000D03*
D29*
X65900000Y-48260000D03*
X65197056Y-49957056D03*
X63500000Y-50660000D03*
X61802944Y-49957056D03*
X61100000Y-48260000D03*
X61802944Y-46562944D03*
X63500000Y-45860000D03*
X65197056Y-46562944D03*
D28*
X63500000Y-134620000D03*
D29*
X65900000Y-134620000D03*
X65197056Y-136317056D03*
X63500000Y-137020000D03*
X61802944Y-136317056D03*
X61100000Y-134620000D03*
X61802944Y-132922944D03*
X63500000Y-132220000D03*
X65197056Y-132922944D03*
D28*
X152400000Y-134620000D03*
D29*
X154800000Y-134620000D03*
X154097056Y-136317056D03*
X152400000Y-137020000D03*
X150702944Y-136317056D03*
X150000000Y-134620000D03*
X150702944Y-132922944D03*
X152400000Y-132220000D03*
X154097056Y-132922944D03*
D28*
X238760000Y-134620000D03*
D29*
X241160000Y-134620000D03*
X240457056Y-136317056D03*
X238760000Y-137020000D03*
X237062944Y-136317056D03*
X236360000Y-134620000D03*
X237062944Y-132922944D03*
X238760000Y-132220000D03*
X240457056Y-132922944D03*
D27*
X106934000Y-67322000D03*
X106934000Y-68822000D03*
X106680000Y-62750000D03*
X106680000Y-64250000D03*
D26*
X115836000Y-61976000D03*
X117336000Y-61976000D03*
X117844000Y-70485000D03*
X116344000Y-70485000D03*
D27*
X108839000Y-64250000D03*
X108839000Y-62750000D03*
X161798000Y-111391000D03*
X161798000Y-112891000D03*
X177927000Y-111264000D03*
X177927000Y-112764000D03*
X157988000Y-116979000D03*
X157988000Y-118479000D03*
X174117000Y-116979000D03*
X174117000Y-118479000D03*
X159766000Y-111391000D03*
X159766000Y-112891000D03*
X175895000Y-111264000D03*
X175895000Y-112764000D03*
D26*
X167374000Y-118999000D03*
X165874000Y-118999000D03*
X183884000Y-118999000D03*
X182384000Y-118999000D03*
D27*
X194564000Y-111264000D03*
X194564000Y-112764000D03*
X211074000Y-111264000D03*
X211074000Y-112764000D03*
X190627000Y-116979000D03*
X190627000Y-118479000D03*
X207264000Y-116979000D03*
X207264000Y-118479000D03*
X192532000Y-111276000D03*
X192532000Y-112776000D03*
X209169000Y-111264000D03*
X209169000Y-112764000D03*
D26*
X200394000Y-118999000D03*
X198894000Y-118999000D03*
X216904000Y-118999000D03*
X215404000Y-118999000D03*
D27*
X226822000Y-111264000D03*
X226822000Y-112764000D03*
X223012000Y-116979000D03*
X223012000Y-118479000D03*
X224917000Y-111264000D03*
X224917000Y-112764000D03*
D26*
X232767000Y-118999000D03*
X231267000Y-118999000D03*
X113145000Y-117221000D03*
X111645000Y-117221000D03*
X100001422Y-117221000D03*
X101501422Y-117221000D03*
X101461000Y-113411000D03*
X99961000Y-113411000D03*
X80911000Y-117221000D03*
X82411000Y-117221000D03*
X82411000Y-113411000D03*
X80911000Y-113411000D03*
X93841000Y-117221000D03*
X92341000Y-117221000D03*
X103771000Y-123825000D03*
X105271000Y-123825000D03*
X92341000Y-113411000D03*
X93841000Y-113411000D03*
D11*
X115697000Y-124206000D03*
X115697000Y-127106000D03*
D26*
X64020000Y-125222000D03*
X65520000Y-125222000D03*
X65520000Y-121412000D03*
X64020000Y-121412000D03*
D27*
X66929000Y-128639000D03*
X66929000Y-127139000D03*
X70739000Y-127139000D03*
X70739000Y-128639000D03*
X106045000Y-80415000D03*
X106045000Y-81915000D03*
D26*
X118860000Y-94615000D03*
X117360000Y-94615000D03*
D27*
X85217000Y-96278000D03*
X85217000Y-97778000D03*
D26*
X111010000Y-101600000D03*
X112510000Y-101600000D03*
X72759000Y-112776000D03*
X71259000Y-112776000D03*
D27*
X94742000Y-102247000D03*
X94742000Y-103747000D03*
X96774000Y-102247000D03*
X96774000Y-103747000D03*
D26*
X99937000Y-105918000D03*
X98437000Y-105918000D03*
D27*
X96774000Y-106795000D03*
X96774000Y-105295000D03*
D30*
X72771000Y-104046000D03*
X72771000Y-98646000D03*
D31*
X64450000Y-81280000D03*
X69850000Y-81280000D03*
X64450000Y-88265000D03*
X69850000Y-88265000D03*
D32*
X117138999Y-68490000D03*
X117138999Y-67840000D03*
X117138999Y-67190000D03*
X117138999Y-66540000D03*
X117138999Y-65890000D03*
X117138999Y-65240000D03*
X117138999Y-64590000D03*
X117138999Y-63940000D03*
X111238999Y-63940000D03*
X111238999Y-64590000D03*
X111238999Y-65240000D03*
X111238999Y-65890000D03*
X111238999Y-66540000D03*
X111238999Y-67190000D03*
X111238999Y-67840000D03*
X111238999Y-68490000D03*
D33*
X135349000Y-102489000D03*
X135349000Y-103759000D03*
X135349000Y-105029000D03*
X135349000Y-106299000D03*
X140749000Y-106299000D03*
X140749000Y-105029000D03*
X140749000Y-103759000D03*
X140749000Y-102489000D03*
X90632333Y-64942000D03*
X90632333Y-66212000D03*
X90632333Y-67482000D03*
X90632333Y-68752000D03*
X96032333Y-68752000D03*
X96032333Y-67482000D03*
X96032333Y-66212000D03*
X96032333Y-64942000D03*
D19*
X67945000Y-106795000D03*
X67945000Y-105295000D03*
X227457000Y-78613000D03*
X227457000Y-77113000D03*
D20*
X62345000Y-92633800D03*
X60845000Y-92633800D03*
D19*
X79629000Y-66028000D03*
X79629000Y-64528000D03*
D21*
X85725000Y-67929000D03*
X85725000Y-65929000D03*
D34*
X220980000Y-93789500D03*
X220980000Y-101790500D03*
D35*
X204279500Y-58420000D03*
X212280500Y-58420000D03*
D20*
X181725000Y-61595000D03*
X180225000Y-61595000D03*
X198767000Y-48133000D03*
X200267000Y-48133000D03*
D36*
X190476000Y-66675000D03*
X187476000Y-66675000D03*
X196064000Y-66675000D03*
X193064000Y-66675000D03*
D20*
X184785000Y-66675000D03*
X183285000Y-66675000D03*
X198640000Y-66675000D03*
X200140000Y-66675000D03*
D19*
X175514000Y-71640000D03*
X175514000Y-73140000D03*
X208280000Y-71640000D03*
X208280000Y-73140000D03*
D37*
X178705000Y-83058000D03*
X180705000Y-83058000D03*
X178705000Y-80518000D03*
X180705000Y-80518000D03*
D38*
X177289460Y-88900000D03*
X183390540Y-88900000D03*
D37*
X195310000Y-76581000D03*
X193310000Y-76581000D03*
D38*
X206377540Y-88900000D03*
X200276460Y-88900000D03*
D37*
X204835000Y-83185000D03*
X202835000Y-83185000D03*
X204835000Y-80645000D03*
X202835000Y-80645000D03*
D20*
X188861000Y-78740000D03*
X190361000Y-78740000D03*
X194552000Y-78740000D03*
X193052000Y-78740000D03*
D19*
X108839000Y-67322000D03*
X108839000Y-68822000D03*
D20*
X121019000Y-67310000D03*
X119519000Y-67310000D03*
X114669000Y-70485000D03*
X113169000Y-70485000D03*
X119519000Y-64770000D03*
X121019000Y-64770000D03*
X121019000Y-62865000D03*
X119519000Y-62865000D03*
D21*
X130810000Y-105394000D03*
X130810000Y-103394000D03*
D19*
X127889000Y-103112000D03*
X127889000Y-101612000D03*
X132842000Y-105144000D03*
X132842000Y-103644000D03*
X87884000Y-67679000D03*
X87884000Y-66179000D03*
X75438000Y-81292000D03*
X75438000Y-82792000D03*
X75438000Y-88253000D03*
X75438000Y-86753000D03*
X157988000Y-115177000D03*
X157988000Y-113677000D03*
X174117000Y-115177000D03*
X174117000Y-113677000D03*
X190627000Y-115177000D03*
X190627000Y-113677000D03*
X207264000Y-115177000D03*
X207264000Y-113677000D03*
X223012000Y-115177000D03*
X223012000Y-113677000D03*
D20*
X107835000Y-111506000D03*
X109335000Y-111506000D03*
X113145000Y-111506000D03*
X111645000Y-111506000D03*
X101473000Y-115316000D03*
X99973000Y-115316000D03*
X111645000Y-115316000D03*
X113145000Y-115316000D03*
X71640000Y-119507000D03*
X73140000Y-119507000D03*
X82411000Y-115316000D03*
X80911000Y-115316000D03*
X88531000Y-111506000D03*
X90031000Y-111506000D03*
D19*
X104013000Y-125996000D03*
X104013000Y-127496000D03*
D20*
X92341000Y-115316000D03*
X93841000Y-115316000D03*
X76823000Y-121412000D03*
X75323000Y-121412000D03*
X112891000Y-123825000D03*
X111391000Y-123825000D03*
X65520000Y-123317000D03*
X64020000Y-123317000D03*
X93841000Y-111506000D03*
X92341000Y-111506000D03*
D19*
X68834000Y-127139000D03*
X68834000Y-128639000D03*
X115570000Y-96405000D03*
X115570000Y-97905000D03*
D20*
X83058000Y-89154000D03*
X84558000Y-89154000D03*
D19*
X89789000Y-97143000D03*
X89789000Y-95643000D03*
D21*
X87630000Y-97393000D03*
X87630000Y-95393000D03*
D19*
X111252000Y-99556000D03*
X111252000Y-98056000D03*
X107188000Y-105537000D03*
X107188000Y-104037000D03*
D21*
X113284000Y-99679000D03*
X113284000Y-97679000D03*
D20*
X83427000Y-101473000D03*
X81927000Y-101473000D03*
X98438524Y-81669000D03*
X96938524Y-81669000D03*
D19*
X89797000Y-91760476D03*
X89797000Y-93260476D03*
X111252000Y-87110000D03*
X111252000Y-85610000D03*
D37*
X98536000Y-79502000D03*
X96536000Y-79502000D03*
D21*
X113284000Y-87360000D03*
X113284000Y-85360000D03*
D37*
X101870000Y-104902000D03*
X103870000Y-104902000D03*
D36*
X101370000Y-107442000D03*
X104370000Y-107442000D03*
D19*
X94742000Y-106795000D03*
X94742000Y-105295000D03*
D20*
X105398000Y-102362000D03*
X103898000Y-102362000D03*
D19*
X98679000Y-103874000D03*
X98679000Y-102374000D03*
X89789000Y-90031000D03*
X89789000Y-88531000D03*
X111252000Y-88785000D03*
X111252000Y-90285000D03*
D20*
X100596000Y-81661000D03*
X102096000Y-81661000D03*
D37*
X100600000Y-79502000D03*
X102600000Y-79502000D03*
D19*
X92837000Y-105295000D03*
X92837000Y-106795000D03*
D39*
X182880000Y-69623940D03*
X182880000Y-76426060D03*
X200660000Y-69623940D03*
X200660000Y-76426060D03*
D24*
X151350980Y-57785000D03*
X153449020Y-57785000D03*
X151350980Y-62230000D03*
X153449020Y-62230000D03*
X151350980Y-66675000D03*
X153449020Y-66675000D03*
X177292000Y-63914020D03*
X177292000Y-61815980D03*
D40*
X161787840Y-106807000D03*
X157490160Y-106807000D03*
X178043840Y-106807000D03*
X173746160Y-106807000D03*
X194553840Y-106807000D03*
X190256160Y-106807000D03*
X211063840Y-106807000D03*
X206766160Y-106807000D03*
X226938840Y-106807000D03*
X222641160Y-106807000D03*
X97927160Y-120650000D03*
X102224840Y-120650000D03*
D14*
X140015000Y-67579240D03*
X138115000Y-67579240D03*
X139065000Y-69578220D03*
X145049240Y-57470000D03*
X145049240Y-59370000D03*
X147048220Y-58420000D03*
X145049240Y-61280000D03*
X145049240Y-63180000D03*
X147048220Y-62230000D03*
X145049240Y-65090000D03*
X145049240Y-66990000D03*
X147048220Y-66040000D03*
D41*
X164846000Y-115443000D03*
D42*
X167132000Y-109093000D03*
D41*
X169418000Y-115443000D03*
X181229000Y-115062000D03*
D42*
X183515000Y-108712000D03*
D41*
X185801000Y-115062000D03*
X197739000Y-115062000D03*
D42*
X200025000Y-108712000D03*
D41*
X202311000Y-115062000D03*
X214249000Y-115062000D03*
D42*
X216535000Y-108712000D03*
D41*
X218821000Y-115062000D03*
X230124000Y-115062000D03*
D42*
X232410000Y-108712000D03*
D41*
X234696000Y-115062000D03*
D26*
X163945000Y-86995000D03*
X162445000Y-86995000D03*
D27*
X205105000Y-95135000D03*
X205105000Y-96635000D03*
D26*
X163945000Y-88900000D03*
X162445000Y-88900000D03*
D27*
X207010000Y-95135000D03*
X207010000Y-96635000D03*
X187325000Y-82665000D03*
X187325000Y-81165000D03*
X196215000Y-82550000D03*
X196215000Y-81050000D03*
X177292000Y-71640000D03*
X177292000Y-73140000D03*
X206375000Y-71640000D03*
X206375000Y-73140000D03*
D26*
X188873000Y-80645000D03*
X190373000Y-80645000D03*
X194552000Y-80645000D03*
X193052000Y-80645000D03*
X188861000Y-82677000D03*
X190361000Y-82677000D03*
X194552000Y-82677000D03*
X193052000Y-82677000D03*
X134505000Y-100330000D03*
X136005000Y-100330000D03*
D27*
X132842000Y-102096000D03*
X132842000Y-100596000D03*
X132842000Y-106692000D03*
X132842000Y-108192000D03*
D26*
X139839000Y-100457000D03*
X141339000Y-100457000D03*
X89928000Y-62992000D03*
X91428000Y-62992000D03*
D27*
X87884000Y-63131000D03*
X87884000Y-64631000D03*
X87884000Y-69215000D03*
X87884000Y-70715000D03*
D26*
X95262000Y-62992000D03*
X96762000Y-62992000D03*
D27*
X149225000Y-59170000D03*
X149225000Y-57670000D03*
X149225000Y-62980000D03*
X149225000Y-61480000D03*
X149225000Y-65290000D03*
X149225000Y-66790000D03*
D26*
X181725000Y-63500000D03*
X180225000Y-63500000D03*
D27*
X131191000Y-77966000D03*
X131191000Y-76466000D03*
D43*
X159832000Y-116543000D03*
X160782000Y-116543000D03*
X161732000Y-116543000D03*
X161732000Y-114343000D03*
X159832000Y-114343000D03*
X175961000Y-116416000D03*
X176911000Y-116416000D03*
X177861000Y-116416000D03*
X177861000Y-114216000D03*
X175961000Y-114216000D03*
X192598000Y-116416000D03*
X193548000Y-116416000D03*
X194498000Y-116416000D03*
X194498000Y-114216000D03*
X192598000Y-114216000D03*
X209235000Y-116416000D03*
X210185000Y-116416000D03*
X211135000Y-116416000D03*
X211135000Y-114216000D03*
X209235000Y-114216000D03*
X224983000Y-116416000D03*
X225933000Y-116416000D03*
X226883000Y-116416000D03*
X226883000Y-114216000D03*
X224983000Y-114216000D03*
D33*
X103980000Y-113411000D03*
X103980000Y-114681000D03*
X103980000Y-115951000D03*
X103980000Y-117221000D03*
X109380000Y-117221000D03*
X109380000Y-115951000D03*
X109380000Y-114681000D03*
X109380000Y-113411000D03*
X84676000Y-113411000D03*
X84676000Y-114681000D03*
X84676000Y-115951000D03*
X84676000Y-117221000D03*
X90076000Y-117221000D03*
X90076000Y-115951000D03*
X90076000Y-114681000D03*
X90076000Y-113411000D03*
X67785000Y-121412000D03*
X67785000Y-122682000D03*
X67785000Y-123952000D03*
X67785000Y-125222000D03*
X73185000Y-125222000D03*
X73185000Y-123952000D03*
X73185000Y-122682000D03*
X73185000Y-121412000D03*
D14*
X117109240Y-96205000D03*
X117109240Y-98105000D03*
X119108220Y-97155000D03*
D28*
X238760000Y-48260000D03*
D29*
X241160000Y-48260000D03*
X240457056Y-49957056D03*
X238760000Y-50660000D03*
X237062944Y-49957056D03*
X236360000Y-48260000D03*
X237062944Y-46562944D03*
X238760000Y-45860000D03*
X240457056Y-46562944D03*
D28*
X152400000Y-48260000D03*
D29*
X154800000Y-48260000D03*
X154097056Y-49957056D03*
X152400000Y-50660000D03*
X150702944Y-49957056D03*
X150000000Y-48260000D03*
X150702944Y-46562944D03*
X152400000Y-45860000D03*
X154097056Y-46562944D03*
D36*
X179475000Y-59436000D03*
X182475000Y-59436000D03*
D20*
X211340000Y-99060000D03*
X212840000Y-99060000D03*
D36*
X213360000Y-101600000D03*
X210360000Y-101600000D03*
D44*
X191770000Y-54870000D03*
D45*
X189230000Y-45720000D03*
X194310000Y-45720000D03*
D25*
X152400000Y-139700000D03*
X152400000Y-106680000D03*
X243840000Y-43180000D03*
D46*
X90270000Y-74192000D03*
X92810000Y-74192000D03*
X95350000Y-74192000D03*
X97890000Y-74192000D03*
X100430000Y-74192000D03*
X102970000Y-74192000D03*
X105510000Y-74192000D03*
X108050000Y-74192000D03*
X110590000Y-74192000D03*
X113130000Y-74192000D03*
X115670000Y-74192000D03*
X118210000Y-74192000D03*
X120750000Y-74192000D03*
X123290000Y-74192000D03*
X125830000Y-74192000D03*
X128370000Y-74192000D03*
X130910000Y-74192000D03*
X133450000Y-74192000D03*
X135990000Y-74192000D03*
X138530000Y-74192000D03*
D47*
X76400000Y-75692000D03*
X152400000Y-75692000D03*
X76400000Y-94192000D03*
X152400000Y-94192000D03*
D48*
X162560000Y-60325000D03*
D49*
X160020000Y-60325000D03*
X162560000Y-57785000D03*
X160020000Y-57785000D03*
X162560000Y-55245000D03*
X160020000Y-55245000D03*
X162560000Y-52705000D03*
X160020000Y-52705000D03*
X162560000Y-50165000D03*
X160020000Y-50165000D03*
D50*
X58420000Y-109651800D03*
X58420000Y-111328200D03*
D51*
X58420000Y-113403380D03*
X58420000Y-107576620D03*
D52*
X60718700Y-112951260D03*
X60718700Y-108028740D03*
D53*
X61079380Y-109189520D03*
X61079380Y-109839760D03*
X61079380Y-110490000D03*
X61079380Y-111140240D03*
X61079380Y-111790480D03*
D54*
X130516000Y-132588000D03*
D55*
X128016000Y-123438000D03*
D54*
X125476000Y-132588000D03*
D56*
X85306000Y-99357000D03*
X85306000Y-101557000D03*
X86906000Y-99357000D03*
X86906000Y-101557000D03*
D57*
X226298760Y-88960960D03*
X226949000Y-88960960D03*
X227599240Y-88960960D03*
X227599240Y-87061040D03*
X226949000Y-87061040D03*
X226298760Y-87061040D03*
D58*
X95310960Y-60721240D03*
X95310960Y-60071000D03*
X95310960Y-59420760D03*
X93411040Y-59420760D03*
X93411040Y-60071000D03*
X93411040Y-60721240D03*
D57*
X64373760Y-111058960D03*
X65024000Y-111058960D03*
X65674240Y-111058960D03*
X65674240Y-109159040D03*
X65024000Y-109159040D03*
X64373760Y-109159040D03*
D21*
X69723000Y-111172500D03*
X69723000Y-109172500D03*
D59*
X83820000Y-94210000D03*
X83820000Y-91210000D03*
D60*
X112625000Y-104775000D03*
X109625000Y-104775000D03*
D61*
X130175000Y-69855000D03*
X130175000Y-59055000D03*
D25*
X86360000Y-80010000D03*
X116205000Y-104775000D03*
D62*
X106603000Y-125984000D03*
X112903000Y-125984000D03*
X106603000Y-127254000D03*
X112903000Y-127254000D03*
D11*
X143764000Y-102817000D03*
X143764000Y-105717000D03*
D26*
X65774000Y-113665000D03*
X64274000Y-113665000D03*
D63*
X76354940Y-70187820D03*
X76354940Y-69088000D03*
X76354940Y-67988180D03*
X76354940Y-66888360D03*
X76354940Y-65786000D03*
X76354940Y-64686180D03*
X76354940Y-63586360D03*
X76354940Y-62486540D03*
D64*
X74795380Y-72242680D03*
D65*
X61595000Y-72136000D03*
D66*
X76446380Y-58938160D03*
D67*
X67396360Y-72242680D03*
D65*
X61595000Y-58638440D03*
D68*
X76446380Y-71597520D03*
D27*
X69723000Y-114058000D03*
X69723000Y-115558000D03*
D69*
X232308400Y-60833000D03*
D70*
X230505000Y-66675000D03*
D71*
X233045000Y-66675000D03*
X230505000Y-69215000D03*
X233045000Y-69215000D03*
X230505000Y-71755000D03*
X233045000Y-71755000D03*
X230505000Y-74295000D03*
X233045000Y-74295000D03*
X230505000Y-76835000D03*
X233045000Y-76835000D03*
X230505000Y-79375000D03*
X233045000Y-79375000D03*
X230505000Y-81915000D03*
X233045000Y-81915000D03*
X230505000Y-84455000D03*
X233045000Y-84455000D03*
X230505000Y-86995000D03*
X233045000Y-86995000D03*
X230505000Y-89535000D03*
X233045000Y-89535000D03*
D69*
X232308400Y-95377000D03*
D72*
X171970000Y-60240000D03*
X171970000Y-54740000D03*
X167470000Y-60240000D03*
X167470000Y-54740000D03*
D69*
X169720000Y-46990000D03*
D72*
X143510000Y-122345000D03*
X143510000Y-127845000D03*
D69*
X143510000Y-135595000D03*
D72*
X162064000Y-122345000D03*
X162064000Y-127845000D03*
X166564000Y-122345000D03*
X166564000Y-127845000D03*
D69*
X164314000Y-135595000D03*
D72*
X211594000Y-122345000D03*
X211594000Y-127845000D03*
X216094000Y-122345000D03*
X216094000Y-127845000D03*
D69*
X213844000Y-135595000D03*
D72*
X178574000Y-122345000D03*
X178574000Y-127845000D03*
X183074000Y-122345000D03*
X183074000Y-127845000D03*
D69*
X180824000Y-135595000D03*
D72*
X195084000Y-122345000D03*
X195084000Y-127845000D03*
X199584000Y-122345000D03*
X199584000Y-127845000D03*
D69*
X197334000Y-135595000D03*
D72*
X227620000Y-122345000D03*
X227620000Y-127845000D03*
X232120000Y-122345000D03*
X232120000Y-127845000D03*
D69*
X229870000Y-135595000D03*
D73*
X167640000Y-66675000D03*
X167640000Y-78105000D03*
X215900000Y-67437000D03*
X215900000Y-78867000D03*
D74*
X139700000Y-52578000D03*
X114300000Y-52578000D03*
D75*
X132461000Y-54142400D03*
D76*
X129667000Y-54142400D03*
X126873000Y-54142400D03*
X124206000Y-54142400D03*
X121412000Y-54142400D03*
X122809000Y-51308000D03*
X125603000Y-51308000D03*
X128270000Y-51308000D03*
X131064000Y-51308000D03*
D74*
X101600000Y-52537600D03*
X76200000Y-52537600D03*
D75*
X94361000Y-54102000D03*
D76*
X91567000Y-54102000D03*
X88773000Y-54102000D03*
X86106000Y-54102000D03*
X83312000Y-54102000D03*
X84709000Y-51267600D03*
X87503000Y-51267600D03*
X90170000Y-51267600D03*
X92964000Y-51267600D03*
D77*
X191111000Y-70846400D03*
D78*
X188923000Y-70395000D03*
X188923000Y-71045000D03*
X188923000Y-71695000D03*
X188923000Y-72345000D03*
X188923000Y-72995000D03*
X188923000Y-73645000D03*
X188923000Y-74295000D03*
X194823000Y-74295000D03*
X194823000Y-73645000D03*
X194823000Y-72995000D03*
X194823000Y-72345000D03*
X194823000Y-71695000D03*
X194823000Y-71045000D03*
X194823000Y-70395000D03*
D79*
X191873000Y-72345000D03*
D77*
X192611000Y-70846400D03*
X191111000Y-72346400D03*
X192611000Y-72346400D03*
X191111000Y-73846400D03*
X192611000Y-73846400D03*
M02*
