M48
;DRILL file {KiCad 4.0.2-stable} date 4/19/2016 3:53:13 PM
;FORMAT={2:4/ absolute / inch / suppress trailing zeros}
FMAT,2
INCH,LZ
T1C0.013
T2C0.020
T3C0.020
T4C0.026
T5C0.030
T6C0.035
T7C0.036
T8C0.040
T9C0.043
T10C0.060
T11C0.071
T12C0.102
T13C0.120
T14C0.126
%
G90
G05
M72
T1
X075241Y-027892
X075241Y-028483
X075241Y-029073
X075241Y-067892
X075241Y-068483
X075241Y-069073
X075831Y-027892
X075831Y-028483
X075831Y-029073
X075831Y-067892
X075831Y-068483
X075831Y-069073
T2
X024055Y-019
X024055Y-053
X024055Y-059
X024055Y-093
X024332Y-018332
X024332Y-019668
X024332Y-052332
X024332Y-053668
X024332Y-058332
X024332Y-059668
X024332Y-092332
X024332Y-093668
X025Y-018055
X025Y-019945
X025Y-052055
X025Y-053945
X025Y-058055
X025Y-059945
X025Y-092055
X025Y-093945
X025668Y-018332
X025668Y-019668
X025668Y-052332
X025668Y-053668
X025668Y-058332
X025668Y-059668
X025668Y-092332
X025668Y-093668
X025945Y-019
X025945Y-053
X025945Y-059
X025945Y-093
X059055Y-019
X059055Y-053
X059055Y-059
X059055Y-093
X059332Y-018332
X059332Y-019668
X059332Y-052332
X059332Y-053668
X059332Y-058332
X059332Y-059668
X059332Y-092332
X059332Y-093668
X06Y-018055
X06Y-019945
X06Y-052055
X06Y-053945
X06Y-058055
X06Y-059945
X06Y-092055
X06Y-093945
X060668Y-018332
X060668Y-019668
X060668Y-052332
X060668Y-053668
X060668Y-058332
X060668Y-059668
X060668Y-092332
X060668Y-093668
X060945Y-019
X060945Y-053
X060945Y-059
X060945Y-093
X093055Y-019
X093055Y-053
X093055Y-059
X093055Y-093
X093332Y-018332
X093332Y-019668
X093332Y-052332
X093332Y-053668
X093332Y-058332
X093332Y-059668
X093332Y-092332
X093332Y-093668
X094Y-018055
X094Y-019945
X094Y-052055
X094Y-053945
X094Y-058055
X094Y-059945
X094Y-092055
X094Y-093945
X094668Y-018332
X094668Y-019668
X094668Y-052332
X094668Y-053668
X094668Y-058332
X094668Y-059668
X094668Y-092332
X094668Y-093668
X094945Y-019
X094945Y-053
X094945Y-059
X094945Y-093
T3
X0235Y-041
X0235Y-0415
X0235Y-0455
X0235Y-046
X0235Y-081
X0235Y-0815
X0235Y-0855
X0235Y-086
X02415Y-03685
X02415Y-07685
X02425Y-041
X02425Y-0415
X02425Y-0455
X02425Y-046
X02425Y-081
X02425Y-0815
X02425Y-0855
X02425Y-086
X0246Y-0407
X0246Y-0807
X025Y-041
X025Y-0415
X025Y-0455
X025Y-046
X025Y-081
X025Y-0815
X025Y-0855
X025Y-086
X025205Y-048895
X025205Y-088895
X02525Y-0315
X02525Y-03525
X02525Y-0715
X02525Y-07525
X025685Y-04418
X025685Y-08418
X02575Y-02325
X02575Y-0285
X02575Y-041
X02575Y-0415
X02575Y-0455
X02575Y-046025
X02575Y-06325
X02575Y-0685
X02575Y-081
X02575Y-0815
X02575Y-0855
X02575Y-086025
X0262Y-0493
X0262Y-0893
X0263Y-04475
X0263Y-08475
X0267Y-03875
X0267Y-07875
X02675Y-051
X02675Y-091
X02685Y-038075
X02685Y-078075
X02715Y-0384
X02715Y-0784
X0275Y-02325
X0275Y-0285
X0275Y-06325
X0275Y-0685
X02775Y-048
X02775Y-088
X0282Y-0474
X0282Y-0874
X0285Y-04185
X0285Y-08185
X02905Y-0444
X02905Y-0844
X02925Y-02325
X02925Y-02775
X02925Y-06325
X02925Y-06775
X02945Y-04665
X02945Y-08665
X0297Y-03335
X0297Y-07335
X0302Y-0394
X0302Y-0794
X03025Y-0483
X03025Y-0883
X030625Y-027061
X030625Y-067061
X03065Y-02505
X03065Y-06505
X030829Y-026599
X030829Y-066599
X0309Y-02465
X0309Y-06465
X031Y-04085
X031Y-08085
X03103Y-0263
X03103Y-0663
X03145Y-03955
X03145Y-07955
X03175Y-02585
X03175Y-06585
X031855Y-045745
X031855Y-085745
X031899Y-025434
X031899Y-065434
X03194Y-03455
X03194Y-07455
X03215Y-0404
X03215Y-0804
X032325Y-0297
X032325Y-0697
X03255Y-03828
X03255Y-07828
X03265Y-02944
X03265Y-06944
X0327Y-03415
X0327Y-07415
X0328Y-03755
X0328Y-07755
X032806Y-038557
X032806Y-078557
X033Y-03795
X033Y-04135
X033Y-07795
X033Y-08135
X033125Y-029075
X033125Y-069075
X033156Y-038759
X033156Y-078759
X03325Y-04665
X03325Y-08665
X033274Y-02845
X033274Y-06845
X03329Y-02809
X03329Y-06809
X03335Y-0258
X03335Y-03015
X03335Y-0658
X03335Y-07015
X033725Y-03005
X033725Y-07005
X033775Y-035075
X033775Y-075075
X03393Y-038135
X03393Y-078135
X03395Y-037495
X03395Y-077495
X034Y-03685
X034Y-07685
X03418Y-03067
X03418Y-07067
X03465Y-023
X03465Y-031075
X03465Y-03276
X03465Y-063
X03465Y-071075
X03465Y-07276
X03466Y-03237
X03466Y-07237
X03485Y-0388
X03485Y-0443
X03485Y-0788
X03485Y-0843
X034975Y-03545
X034975Y-07545
X034995Y-034855
X034995Y-074855
X03525Y-02987
X03525Y-06987
X03536Y-03236
X03536Y-07236
X03539Y-03275
X03539Y-07275
X03542Y-03129
X03542Y-07129
X03545Y-04015
X03545Y-08015
X03565Y-0278
X03565Y-0678
X035687Y-029713
X035687Y-069713
X035787Y-037519
X035787Y-077519
X0358Y-03125
X0358Y-0332
X0358Y-07125
X0358Y-0732
X035843Y-037875
X035843Y-077875
X0359Y-04355
X0359Y-08355
X03595Y-04205
X03595Y-08205
X03638Y-03306
X03638Y-07306
X03675Y-03336
X03675Y-07336
X036873Y-03295
X036873Y-07295
X036925Y-042525
X036925Y-082525
X036942Y-04135
X036942Y-08135
X03695Y-0344
X03695Y-037625
X03695Y-03815
X03695Y-0744
X03695Y-077625
X03695Y-07815
X036975Y-037225
X036975Y-077225
X03705Y-026947
X03705Y-0298
X03705Y-066947
X03705Y-0698
X0371Y-0435
X0371Y-0835
X03715Y-02365
X03715Y-04165
X03715Y-06365
X03715Y-08165
X03745Y-03775
X03745Y-07775
X03746Y-03268
X03746Y-07268
X037487Y-033733
X037487Y-073733
X0375Y-0315
X0375Y-04575
X0375Y-0715
X0375Y-08575
X037511Y-039949
X037511Y-079949
X037571Y-032337
X037571Y-072337
X037675Y-038655
X037675Y-078655
X0377Y-0417
X0377Y-0817
X03795Y-03675
X03795Y-07675
X038003Y-030913
X038003Y-070913
X03815Y-0341
X03815Y-0741
X0383Y-038575
X0383Y-078575
X0385Y-0248
X0385Y-0648
X038516Y-033749
X038516Y-073749
X0386Y-02175
X0386Y-06175
X0387Y-041175
X0387Y-0457
X0387Y-081175
X0387Y-0857
X038772Y-034064
X038772Y-074064
X03905Y-04145
X03905Y-08145
X039115Y-039929
X039115Y-079929
X03925Y-0423
X03925Y-0823
X039422Y-033801
X039422Y-073801
X03969Y-03261
X03969Y-07261
X039724Y-034251
X039724Y-074251
X0398Y-03605
X0398Y-037
X0398Y-07605
X0398Y-077
X039859Y-02807
X039859Y-06807
X0399Y-0318
X0399Y-0718
X03995Y-04
X03995Y-08
X040025Y-035769
X040025Y-036719
X040025Y-075769
X040025Y-076719
X04007Y-032508
X04007Y-072508
X040091Y-038906
X040091Y-078906
X04035Y-0501
X04035Y-0901
X040378Y-030872
X040378Y-070872
X04045Y-034
X04045Y-074
X0405Y-0278
X0405Y-0678
X04055Y-04065
X04055Y-08065
X040797Y-038753
X040797Y-078753
X041044Y-028065
X041044Y-068065
X041451Y-026778
X041451Y-066778
X0417Y-04605
X0417Y-08605
X04175Y-04175
X04175Y-04275
X04175Y-08175
X04175Y-08275
X0419Y-04025
X0419Y-08025
X0421Y-03445
X0421Y-0384
X0421Y-07445
X0421Y-0784
X04225Y-026813
X04225Y-03275
X04225Y-066813
X04225Y-07275
X0424Y-042742
X0424Y-082742
X04246Y-04464
X04246Y-08464
X0425Y-0261
X0425Y-031
X0425Y-0661
X0425Y-071
X0432Y-035
X0432Y-075
X04325Y-04875
X04325Y-08875
X043396Y-03984
X043396Y-07984
X0434Y-0326
X0434Y-0726
X04345Y-0247
X04345Y-0647
X0435Y-032
X0435Y-0439
X0435Y-072
X0435Y-0839
X04358Y-04101
X04358Y-08101
X0438Y-03959
X0438Y-07959
X04387Y-04071
X04387Y-08071
X044055Y-035349
X044055Y-075349
X044213Y-045068
X044213Y-085068
X044493Y-0319
X044493Y-0719
X0445Y-0444
X0445Y-0844
X04455Y-02735
X04455Y-06735
X04465Y-03765
X04465Y-07765
X04475Y-046575
X04475Y-086575
X04505Y-0336
X04505Y-0736
X04515Y-03429
X04515Y-07429
X045172Y-038328
X045172Y-078328
X04525Y-04575
X04525Y-08575
X0458Y-0273
X0458Y-0673
X045922Y-039078
X045922Y-079078
X046Y-044375
X046Y-084375
X0461Y-0331
X0461Y-0731
X04623Y-044098
X04623Y-084098
X046468Y-0438
X046468Y-0838
X04657Y-03773
X04657Y-07773
X0466Y-0247
X0466Y-0647
X046635Y-036485
X046635Y-076485
X04675Y-04355
X04675Y-08355
X04703Y-03886
X04703Y-07886
X047037Y-036308
X047037Y-076308
X04705Y-02815
X04705Y-06815
X047094Y-036788
X047094Y-076788
X04711Y-03922
X04711Y-07922
X047173Y-043415
X047173Y-083415
X04732Y-03597
X04732Y-07597
X047394Y-036986
X047394Y-076986
X047857Y-036699
X047857Y-076699
X04788Y-03608
X04788Y-07608
X048136Y-028314
X048136Y-068314
X048368Y-036504
X048368Y-076504
X048639Y-036267
X048639Y-076267
X048831Y-036847
X048831Y-076847
X049287Y-04024
X049287Y-08024
X04945Y-03865
X04945Y-07865
X05005Y-0273
X05005Y-0673
X05015Y-02675
X05015Y-06675
X05055Y-02545
X05055Y-06545
X0508Y-026
X0508Y-066
X0509Y-04135
X0509Y-08135
X051Y-04025
X051Y-08025
X051525Y-044775
X051525Y-084775
X051975Y-045675
X051975Y-085675
X0535Y-0265
X0535Y-0665
X0548Y-0366
X0548Y-0766
X05485Y-03795
X05485Y-07795
X056Y-03955
X056Y-07955
X057Y-02374
X057Y-02524
X057Y-02675
X057Y-06374
X057Y-06524
X057Y-06675
X05745Y-0458
X05745Y-0858
X0587Y-0365
X0587Y-0765
X05875Y-02375
X05875Y-02525
X05875Y-06375
X05875Y-06525
X0594Y-0499
X0594Y-0899
X05955Y-04755
X05955Y-08755
X06171Y-04475
X06171Y-08475
X06175Y-0455
X06175Y-0855
X06215Y-03675
X06215Y-07675
X0629Y-04695
X0629Y-08695
X0634Y-04635
X0634Y-08635
X0679Y-0448
X0679Y-0848
X06825Y-0455
X06825Y-0855
X0692Y-03715
X0692Y-07715
X0698Y-046425
X0698Y-086425
X0701Y-02355
X0701Y-06355
X0704Y-02435
X0704Y-06435
X0717Y-03445
X0717Y-0356
X0717Y-07445
X0717Y-0756
X07195Y-02455
X07195Y-06455
X0722Y-0356
X0722Y-0756
X072201Y-034451
X072201Y-074451
X07235Y-0237
X07235Y-0637
X07275Y-03445
X07275Y-0356
X07275Y-07445
X07275Y-0756
X07325Y-02575
X07325Y-06575
X07375Y-027
X07375Y-067
X0745Y-0447
X0745Y-0455
X0745Y-0847
X0745Y-0855
X07525Y-02725
X07525Y-02975
X07525Y-06725
X07525Y-06975
X075475Y-031775
X075475Y-032525
X075475Y-071775
X075475Y-072525
X0755Y-03045
X0755Y-07045
X07585Y-02725
X07585Y-02975
X07585Y-06725
X07585Y-06975
X07635Y-0463
X07635Y-0863
X07725Y-027
X07725Y-067
X07775Y-02575
X07775Y-06575
X0783Y-03445
X0783Y-0356
X0783Y-07445
X0783Y-0756
X07885Y-03445
X07885Y-0356
X07885Y-07445
X07885Y-0756
X0794Y-03445
X0794Y-0356
X0794Y-07445
X0794Y-0756
X08105Y-0447
X08105Y-0847
X08125Y-0455
X08125Y-0855
X08285Y-04635
X08285Y-08635
X0844Y-0394
X0844Y-0794
X0873Y-0447
X0873Y-0847
X0875Y-0455
X0875Y-0855
X08915Y-03135
X08915Y-04635
X08915Y-07135
X08915Y-08635
X08935Y-03465
X08935Y-07465
T4
X024Y-03785
X024Y-03835
X024Y-07785
X024Y-07835
X0245Y-03785
X0245Y-03835
X0245Y-07785
X0245Y-07835
X025Y-03785
X025Y-03835
X025Y-07785
X025Y-07835
X0255Y-03785
X0255Y-03835
X0255Y-07785
X0255Y-07835
X026Y-03785
X026Y-03835
X026Y-07785
X026Y-07835
T5
X02825Y-0185
X02825Y-05275
X02825Y-0585
X02825Y-09275
X028775Y-035909
X028775Y-075909
X03Y-031225
X03Y-071225
X0305Y-05275
X0305Y-09275
X034466Y-030111
X034466Y-070111
X035Y-05275
X035Y-09275
X038426Y-030728
X038426Y-070728
X04015Y-054
X04015Y-094
X04715Y-04705
X04715Y-0478
X04715Y-04855
X04715Y-0493
X04715Y-05005
X04715Y-08705
X04715Y-0878
X04715Y-08855
X04715Y-0893
X04715Y-09005
X04775Y-034
X04775Y-074
X04875Y-03075
X04875Y-07075
X051Y-03375
X051Y-07375
X0535Y-03175
X0535Y-07175
X05365Y-04705
X05365Y-0478
X05365Y-04855
X05365Y-0493
X05365Y-05005
X05365Y-08705
X05365Y-0878
X05365Y-08855
X05365Y-0893
X05365Y-09005
X05475Y-027999
X05475Y-067999
X05725Y-01875
X05725Y-05875
X05825Y-03075
X05825Y-07075
X061575Y-042925
X061575Y-082925
X062239Y-054239
X062239Y-094239
X06225Y-01875
X06225Y-05875
X0658Y-044525
X0658Y-084525
X0667Y-0464
X0667Y-0864
X0672Y-0523
X0672Y-0923
X06725Y-04975
X06725Y-08975
X067475Y-04545
X067475Y-08545
X0675Y-0438
X0675Y-0838
X067975Y-0429
X067975Y-0829
X072Y-0289
X072Y-03105
X072Y-0689
X072Y-07105
X07225Y-0445
X07225Y-0845
X073Y-020079
X073Y-021
X073Y-022
X073Y-023
X073Y-060079
X073Y-061
X073Y-062
X073Y-063
X07315Y-0463
X07315Y-0863
X0733Y-03005
X0733Y-07005
X0735Y-024
X0735Y-064
X07355Y-05225
X07355Y-09225
X073587Y-017764
X073587Y-057764
X07375Y-04975
X07375Y-08975
X073925Y-0453
X073925Y-0853
X07405Y-0437
X07405Y-0837
X0745Y-024
X0745Y-064
X0746Y-04295
X0746Y-08295
X07475Y-035
X07475Y-03575
X07475Y-075
X07475Y-07575
X07525Y-018
X07525Y-058
X0755Y-024
X0755Y-035
X0755Y-03575
X0755Y-064
X0755Y-075
X0755Y-07575
X07625Y-035
X07625Y-03575
X07625Y-075
X07625Y-07575
X0765Y-024
X0765Y-064
X0775Y-024
X0775Y-064
X07785Y-03005
X07785Y-07005
X078Y-02
X078Y-021
X078Y-022
X078Y-023
X078Y-06
X078Y-061
X078Y-062
X078Y-063
X07875Y-04445
X07875Y-08445
X079Y-0289
X079Y-03105
X079Y-0689
X079Y-07105
X07965Y-0463
X07965Y-0863
X08Y-0495
X08Y-0895
X0802Y-0523
X0802Y-0923
X0804Y-0453
X0804Y-0853
X0805Y-0437
X0805Y-0837
X080925Y-04295
X080925Y-08295
X082375Y-0231
X082375Y-0631
X08355Y-02395
X08355Y-06395
X08485Y-023
X08485Y-063
X08525Y-04445
X08525Y-08445
X08527Y-01955
X08527Y-05955
X08615Y-0463
X08615Y-0863
X08675Y-05
X08675Y-09
X0869Y-0453
X0869Y-0853
X08695Y-04375
X08695Y-08375
X08725Y-05225
X08725Y-09225
X087375Y-0429
X087375Y-0829
X088Y-03575
X088Y-0365
X088Y-07575
X088Y-0765
X0885Y-03575
X0885Y-0365
X0885Y-07575
X0885Y-0765
X08994Y-020495
X08994Y-060495
X0915Y-0445
X0915Y-0845
X0924Y-04635
X0924Y-08635
X09325Y-0453
X09325Y-0853
X09335Y-04375
X09335Y-08375
X094Y-023
X094Y-027
X094Y-031
X094Y-035
X094Y-03925
X094Y-063
X094Y-067
X094Y-071
X094Y-075
X094Y-07925
T6
X035539Y-029209
X035539Y-069209
X036539Y-029209
X036539Y-069209
X037539Y-029209
X037539Y-069209
X038539Y-029209
X038539Y-069209
X039539Y-029209
X039539Y-069209
X040539Y-029209
X040539Y-069209
X041539Y-029209
X041539Y-069209
X042539Y-029209
X042539Y-069209
X043539Y-029209
X043539Y-069209
X044539Y-029209
X044539Y-069209
X045539Y-029209
X045539Y-069209
X046539Y-029209
X046539Y-069209
X047539Y-029209
X047539Y-069209
X048539Y-029209
X048539Y-069209
X049539Y-029209
X049539Y-069209
X050539Y-029209
X050539Y-069209
X051539Y-029209
X051539Y-069209
X052539Y-029209
X052539Y-069209
X053539Y-029209
X053539Y-069209
X054539Y-029209
X054539Y-069209
T7
X09075Y-02625
X09075Y-02725
X09075Y-02825
X09075Y-02925
X09075Y-03025
X09075Y-03125
X09075Y-03225
X09075Y-03325
X09075Y-03425
X09075Y-03525
X09075Y-06625
X09075Y-06725
X09075Y-06825
X09075Y-06925
X09075Y-07025
X09075Y-07125
X09075Y-07225
X09075Y-07325
X09075Y-07425
X09075Y-07525
X09175Y-02625
X09175Y-02725
X09175Y-02825
X09175Y-02925
X09175Y-03025
X09175Y-03125
X09175Y-03225
X09175Y-03325
X09175Y-03425
X09175Y-03525
X09175Y-06625
X09175Y-06725
X09175Y-06825
X09175Y-06925
X09175Y-07025
X09175Y-07125
X09175Y-07225
X09175Y-07325
X09175Y-07425
X09175Y-07525
T8
X0328Y-0213
X0328Y-0613
X03335Y-020184
X03335Y-060184
X0339Y-0213
X0339Y-0613
X03445Y-020184
X03445Y-060184
X03495Y-0213
X03495Y-0613
X0355Y-020184
X0355Y-060184
X03605Y-0213
X03605Y-0613
X0366Y-020184
X0366Y-060184
X03715Y-0213
X03715Y-0613
X04045Y-02535
X04045Y-02635
X04045Y-06535
X04045Y-06635
X0478Y-021316
X0478Y-061316
X04835Y-0202
X04835Y-0602
X0489Y-021316
X0489Y-061316
X04945Y-0202
X04945Y-0602
X04995Y-021316
X04995Y-061316
X0505Y-0202
X0505Y-0602
X05105Y-021316
X05105Y-061316
X0516Y-0202
X0516Y-0602
X05215Y-021316
X05215Y-061316
X05475Y-02325
X05475Y-02425
X05475Y-06325
X05475Y-06425
X05805Y-0402
X05805Y-0412
X05805Y-0802
X05805Y-0812
X063Y-01975
X063Y-02075
X063Y-02175
X063Y-02275
X063Y-02375
X063Y-05975
X063Y-06075
X063Y-06175
X063Y-06275
X063Y-06375
X064Y-01975
X064Y-02075
X064Y-02175
X064Y-02275
X064Y-02375
X064Y-05975
X064Y-06075
X064Y-06175
X064Y-06275
X064Y-06375
T9
X031057Y-049618
X031057Y-050799
X031057Y-089618
X031057Y-090799
X032238Y-049618
X032238Y-050799
X032238Y-089618
X032238Y-090799
X033419Y-049618
X033419Y-050799
X033419Y-089618
X033419Y-090799
X0346Y-049618
X0346Y-050799
X0346Y-089618
X0346Y-090799
X035781Y-049618
X035781Y-050799
X035781Y-089618
X035781Y-090799
X036962Y-049618
X036962Y-050799
X036962Y-089618
X036962Y-090799
X038143Y-049618
X038143Y-050799
X038143Y-089618
X038143Y-090799
T10
X0525Y-03775
X0525Y-07775
X057Y-0385
X057Y-0785
X080522Y-019038
X080522Y-059038
X08835Y-0404
X08835Y-0804
T11
X0565Y-048167
X0565Y-050333
X0565Y-088167
X0565Y-090333
X063805Y-048167
X063805Y-050333
X063805Y-088167
X063805Y-090333
X065576Y-048167
X065576Y-050333
X065576Y-088167
X065576Y-090333
X065933Y-021551
X065933Y-023717
X065933Y-061551
X065933Y-063717
X067705Y-021551
X067705Y-023717
X067705Y-061551
X067705Y-063717
X070305Y-048167
X070305Y-050333
X070305Y-088167
X070305Y-090333
X072076Y-048167
X072076Y-050333
X072076Y-088167
X072076Y-090333
X076805Y-048167
X076805Y-050333
X076805Y-088167
X076805Y-090333
X078576Y-048167
X078576Y-050333
X078576Y-088167
X078576Y-090333
X083305Y-048167
X083305Y-050333
X083305Y-088167
X083305Y-090333
X085076Y-048167
X085076Y-050333
X085076Y-088167
X085076Y-090333
X089614Y-048167
X089614Y-050333
X089614Y-088167
X089614Y-090333
X091386Y-048167
X091386Y-050333
X091386Y-088167
X091386Y-090333
T12
X030079Y-0298
X030079Y-037083
X030079Y-0698
X030079Y-077083
X06Y-0298
X06Y-037083
X06Y-0698
X06Y-077083
T13
X03Y-020684
X03Y-060684
X04Y-020684
X04Y-060684
X045Y-0207
X045Y-0607
X055Y-0207
X055Y-0607
T14
X025Y-019
X025Y-053
X025Y-059
X025Y-093
X06Y-019
X06Y-053
X06Y-059
X06Y-093
X094Y-019
X094Y-053
X094Y-059
X094Y-093
T0
M30
