M48
;DRILL file {KiCad 4.0.2-stable} date 4/20/2016 1:41:09 PM
;FORMAT={2:4/ absolute / inch / suppress trailing zeros}
FMAT,2
INCH,LZ
T1C0.118
T2C0.122
%
G90
G05
M72
T1
X0565Y-053384
X0565Y-093384
X064691Y-053384
X064691Y-093384
X066819Y-0185
X066819Y-0585
X071191Y-053384
X071191Y-093384
X077691Y-053384
X077691Y-093384
X084191Y-053384
X084191Y-093384
X0905Y-053384
X0905Y-093384
X09146Y-02395
X09146Y-03755
X09146Y-06395
X09146Y-07755
T2
X031923Y-0525
X031923Y-0925
X037317Y-0525
X037317Y-0925
T0
M30
