G04 #@! TF.FileFunction,Paste,Top*
%FSLAX46Y46*%
G04 Gerber Fmt 4.6, Leading zero omitted, Abs format (unit mm)*
G04 Created by KiCad (PCBNEW 4.0.2-stable) date 4/20/2016 1:41:14 PM*
%MOMM*%
G01*
G04 APERTURE LIST*
%ADD10C,0.100000*%
%ADD11R,0.750000X0.800000*%
%ADD12R,1.250000X1.000000*%
%ADD13R,0.500000X0.900000*%
%ADD14R,2.500000X1.000000*%
%ADD15R,0.900000X0.500000*%
%ADD16R,1.700000X0.900000*%
%ADD17R,0.800100X0.800100*%
%ADD18R,1.500000X0.280000*%
%ADD19R,0.280000X1.500000*%
%ADD20R,0.398780X0.749300*%
%ADD21R,1.000000X1.250000*%
%ADD22R,4.000500X1.600200*%
%ADD23R,0.800000X0.750000*%
%ADD24R,1.450000X0.450000*%
%ADD25R,3.400000X5.000000*%
%ADD26R,3.299460X2.499360*%
%ADD27R,5.400040X5.000000*%
%ADD28R,4.000500X2.400300*%
%ADD29R,1.000000X1.600000*%
%ADD30R,1.198880X1.198880*%
%ADD31R,10.800000X9.400000*%
%ADD32R,1.390000X4.600000*%
%ADD33R,1.651000X3.048000*%
%ADD34R,6.096000X6.096000*%
%ADD35R,0.650000X1.060000*%
%ADD36R,2.499360X2.301240*%
%ADD37R,2.400300X4.000500*%
%ADD38R,1.500000X0.450000*%
%ADD39R,4.000000X5.000000*%
%ADD40R,1.000000X2.500000*%
%ADD41R,1.550000X0.600000*%
%ADD42R,1.700000X1.000000*%
%ADD43R,2.000000X1.600000*%
%ADD44R,0.749300X0.398780*%
%ADD45R,1.678940X0.800100*%
%ADD46R,1.300480X1.290320*%
%ADD47R,1.699260X1.501140*%
%ADD48R,1.501140X1.699260*%
%ADD49R,1.399540X1.290320*%
%ADD50R,1.501140X1.600200*%
%ADD51R,1.200000X1.400000*%
%ADD52R,1.600000X2.000000*%
%ADD53R,1.897380X1.173480*%
%ADD54R,1.897380X2.374900*%
%ADD55R,2.100580X1.473200*%
%ADD56R,1.379220X0.449580*%
%ADD57R,2.500000X4.600000*%
%ADD58R,15.880000X9.400000*%
G04 APERTURE END LIST*
D10*
D11*
X111252000Y-201156000D03*
X111252000Y-199656000D03*
D12*
X113284000Y-201279000D03*
X113284000Y-199279000D03*
D13*
X111010000Y-203200000D03*
X112510000Y-203200000D03*
D14*
X83820000Y-195810000D03*
X83820000Y-192810000D03*
D11*
X111252000Y-190385000D03*
X111252000Y-191885000D03*
D15*
X106045000Y-182015000D03*
X106045000Y-183515000D03*
D16*
X143764000Y-204417000D03*
X143764000Y-207317000D03*
D13*
X139839000Y-202057000D03*
X141339000Y-202057000D03*
D11*
X115570000Y-198005000D03*
X115570000Y-199505000D03*
D17*
X117109240Y-197805000D03*
X117109240Y-199705000D03*
X119108220Y-198755000D03*
D13*
X118860000Y-196215000D03*
X117360000Y-196215000D03*
D15*
X96774000Y-208395000D03*
X96774000Y-206895000D03*
D13*
X99937000Y-207518000D03*
X98437000Y-207518000D03*
D15*
X94742000Y-203847000D03*
X94742000Y-205347000D03*
X96774000Y-203847000D03*
X96774000Y-205347000D03*
D11*
X127889000Y-204712000D03*
X127889000Y-203212000D03*
D12*
X130810000Y-206994000D03*
X130810000Y-204994000D03*
D15*
X132842000Y-203696000D03*
X132842000Y-202196000D03*
D13*
X134505000Y-201930000D03*
X136005000Y-201930000D03*
D11*
X132842000Y-206744000D03*
X132842000Y-205244000D03*
X89797000Y-193360476D03*
X89797000Y-194860476D03*
D12*
X87630000Y-193183000D03*
X87630000Y-195183000D03*
D11*
X89789000Y-191631000D03*
X89789000Y-190131000D03*
D18*
X92430000Y-187802000D03*
X92430000Y-188302000D03*
X92430000Y-188802000D03*
X92430000Y-189302000D03*
X92430000Y-189802000D03*
X92430000Y-190302000D03*
X92430000Y-190802000D03*
X92430000Y-191302000D03*
X92430000Y-191802000D03*
X92430000Y-192302000D03*
X92430000Y-192802000D03*
X92430000Y-193302000D03*
X92430000Y-193802000D03*
X92430000Y-194302000D03*
X92430000Y-194802000D03*
X92430000Y-195302000D03*
X92430000Y-195802000D03*
X92430000Y-196302000D03*
X92430000Y-196802000D03*
X92430000Y-197302000D03*
X92430000Y-197802000D03*
X92430000Y-198302000D03*
X92430000Y-198802000D03*
X92430000Y-199302000D03*
X92430000Y-199802000D03*
D19*
X94330000Y-201702000D03*
X94830000Y-201702000D03*
X95330000Y-201702000D03*
X95830000Y-201702000D03*
X96330000Y-201702000D03*
X96830000Y-201702000D03*
X97330000Y-201702000D03*
X97830000Y-201702000D03*
X98330000Y-201702000D03*
X98830000Y-201702000D03*
X99330000Y-201702000D03*
X99830000Y-201702000D03*
X100330000Y-201702000D03*
X100830000Y-201702000D03*
X101330000Y-201702000D03*
X101830000Y-201702000D03*
X102330000Y-201702000D03*
X102830000Y-201702000D03*
X103330000Y-201702000D03*
X103830000Y-201702000D03*
X104330000Y-201702000D03*
X104830000Y-201702000D03*
X105330000Y-201702000D03*
X105830000Y-201702000D03*
X106330000Y-201702000D03*
D18*
X108230000Y-199802000D03*
X108230000Y-199302000D03*
X108230000Y-198802000D03*
X108230000Y-198302000D03*
X108230000Y-197802000D03*
X108230000Y-197302000D03*
X108230000Y-196802000D03*
X108230000Y-196302000D03*
X108230000Y-195802000D03*
X108230000Y-195302000D03*
X108230000Y-194802000D03*
X108230000Y-194302000D03*
X108230000Y-193802000D03*
X108230000Y-193302000D03*
X108230000Y-192802000D03*
X108230000Y-192302000D03*
X108230000Y-191802000D03*
X108230000Y-191302000D03*
X108230000Y-190802000D03*
X108230000Y-190302000D03*
X108230000Y-189802000D03*
X108230000Y-189302000D03*
X108230000Y-188802000D03*
X108230000Y-188302000D03*
X108230000Y-187802000D03*
D19*
X106330000Y-185902000D03*
X105830000Y-185902000D03*
X105330000Y-185902000D03*
X104830000Y-185902000D03*
X104330000Y-185902000D03*
X103830000Y-185902000D03*
X103330000Y-185902000D03*
X102830000Y-185902000D03*
X102330000Y-185902000D03*
X101830000Y-185902000D03*
X101330000Y-185902000D03*
X100830000Y-185902000D03*
X100330000Y-185902000D03*
X99830000Y-185902000D03*
X99330000Y-185902000D03*
X98830000Y-185902000D03*
X98330000Y-185902000D03*
X97830000Y-185902000D03*
X97330000Y-185902000D03*
X96830000Y-185902000D03*
X96330000Y-185902000D03*
X95830000Y-185902000D03*
X95330000Y-185902000D03*
X94830000Y-185902000D03*
X94330000Y-185902000D03*
D20*
X226298760Y-190560960D03*
X226949000Y-190560960D03*
X227599240Y-190560960D03*
X227599240Y-188661040D03*
X226949000Y-188661040D03*
X226298760Y-188661040D03*
D11*
X227457000Y-180213000D03*
X227457000Y-178713000D03*
D21*
X204835000Y-182245000D03*
X202835000Y-182245000D03*
D22*
X206377540Y-190500000D03*
X200276460Y-190500000D03*
D15*
X196215000Y-184150000D03*
X196215000Y-182650000D03*
D21*
X204835000Y-184785000D03*
X202835000Y-184785000D03*
D13*
X194552000Y-184277000D03*
X193052000Y-184277000D03*
X188861000Y-184277000D03*
X190361000Y-184277000D03*
X194552000Y-182245000D03*
X193052000Y-182245000D03*
D23*
X194552000Y-180340000D03*
X193052000Y-180340000D03*
D21*
X195310000Y-178181000D03*
X193310000Y-178181000D03*
D24*
X188923000Y-171995000D03*
X188923000Y-172645000D03*
X188923000Y-173295000D03*
X188923000Y-173945000D03*
X188923000Y-174595000D03*
X188923000Y-175245000D03*
X188923000Y-175895000D03*
X194823000Y-175895000D03*
X194823000Y-175245000D03*
X194823000Y-174595000D03*
X194823000Y-173945000D03*
X194823000Y-173295000D03*
X194823000Y-172645000D03*
X194823000Y-171995000D03*
D25*
X191873000Y-173945000D03*
D23*
X188861000Y-180340000D03*
X190361000Y-180340000D03*
D13*
X188873000Y-182245000D03*
X190373000Y-182245000D03*
D15*
X177292000Y-173240000D03*
X177292000Y-174740000D03*
D26*
X182880000Y-171223940D03*
X182880000Y-178026060D03*
D21*
X178705000Y-182118000D03*
X180705000Y-182118000D03*
X178705000Y-184658000D03*
X180705000Y-184658000D03*
D11*
X175514000Y-173240000D03*
X175514000Y-174740000D03*
D15*
X187325000Y-184265000D03*
X187325000Y-182765000D03*
D22*
X177289460Y-190500000D03*
X183390540Y-190500000D03*
D27*
X215900000Y-169037000D03*
X215900000Y-180467000D03*
D26*
X200660000Y-171223940D03*
X200660000Y-178026060D03*
D15*
X206375000Y-173240000D03*
X206375000Y-174740000D03*
D11*
X208280000Y-173240000D03*
X208280000Y-174740000D03*
D28*
X204279500Y-160020000D03*
X212280500Y-160020000D03*
D29*
X179475000Y-161036000D03*
X182475000Y-161036000D03*
D30*
X177292000Y-165514020D03*
X177292000Y-163415980D03*
D23*
X184785000Y-168275000D03*
X183285000Y-168275000D03*
X181725000Y-163195000D03*
X180225000Y-163195000D03*
D13*
X181725000Y-165100000D03*
X180225000Y-165100000D03*
D31*
X191770000Y-156470000D03*
D32*
X189230000Y-147320000D03*
X194310000Y-147320000D03*
D29*
X196064000Y-168275000D03*
X193064000Y-168275000D03*
X190476000Y-168275000D03*
X187476000Y-168275000D03*
D23*
X198767000Y-149733000D03*
X200267000Y-149733000D03*
X198640000Y-168275000D03*
X200140000Y-168275000D03*
D33*
X197739000Y-216662000D03*
D34*
X200025000Y-210312000D03*
D33*
X202311000Y-216662000D03*
D15*
X211074000Y-212864000D03*
X211074000Y-214364000D03*
X209169000Y-212864000D03*
X209169000Y-214364000D03*
D11*
X207264000Y-216777000D03*
X207264000Y-215277000D03*
D15*
X207264000Y-218579000D03*
X207264000Y-220079000D03*
D35*
X209235000Y-218016000D03*
X210185000Y-218016000D03*
X211135000Y-218016000D03*
X211135000Y-215816000D03*
X209235000Y-215816000D03*
D13*
X200394000Y-220599000D03*
X198894000Y-220599000D03*
D35*
X224983000Y-218016000D03*
X225933000Y-218016000D03*
X226883000Y-218016000D03*
X226883000Y-215816000D03*
X224983000Y-215816000D03*
D11*
X223012000Y-216777000D03*
X223012000Y-215277000D03*
D33*
X230124000Y-216662000D03*
D34*
X232410000Y-210312000D03*
D33*
X234696000Y-216662000D03*
X214249000Y-216662000D03*
D34*
X216535000Y-210312000D03*
D33*
X218821000Y-216662000D03*
D15*
X224917000Y-212864000D03*
X224917000Y-214364000D03*
X223012000Y-218579000D03*
X223012000Y-220079000D03*
X226822000Y-212864000D03*
X226822000Y-214364000D03*
D36*
X226938840Y-208407000D03*
X222641160Y-208407000D03*
D15*
X205105000Y-196735000D03*
X205105000Y-198235000D03*
D37*
X220980000Y-195389500D03*
X220980000Y-203390500D03*
D15*
X207010000Y-196735000D03*
X207010000Y-198235000D03*
D36*
X211063840Y-208407000D03*
X206766160Y-208407000D03*
D23*
X211340000Y-200660000D03*
X212840000Y-200660000D03*
D29*
X213360000Y-203200000D03*
X210360000Y-203200000D03*
D13*
X232767000Y-220599000D03*
X231267000Y-220599000D03*
X216904000Y-220599000D03*
X215404000Y-220599000D03*
D30*
X229268020Y-220599000D03*
X227169980Y-220599000D03*
X213393020Y-220599000D03*
X211294980Y-220599000D03*
X151350980Y-159385000D03*
X153449020Y-159385000D03*
D17*
X140015000Y-169179240D03*
X138115000Y-169179240D03*
X139065000Y-171178220D03*
D38*
X117138999Y-170090000D03*
X117138999Y-169440000D03*
X117138999Y-168790000D03*
X117138999Y-168140000D03*
X117138999Y-167490000D03*
X117138999Y-166840000D03*
X117138999Y-166190000D03*
X117138999Y-165540000D03*
X111238999Y-165540000D03*
X111238999Y-166190000D03*
X111238999Y-166840000D03*
X111238999Y-167490000D03*
X111238999Y-168140000D03*
X111238999Y-168790000D03*
X111238999Y-169440000D03*
X111238999Y-170090000D03*
D13*
X117844000Y-172085000D03*
X116344000Y-172085000D03*
X115836000Y-163576000D03*
X117336000Y-163576000D03*
D39*
X130175000Y-171455000D03*
X130175000Y-160655000D03*
D15*
X149225000Y-164580000D03*
X149225000Y-163080000D03*
D30*
X151350980Y-163830000D03*
X153449020Y-163830000D03*
D17*
X145049240Y-159070000D03*
X145049240Y-160970000D03*
X147048220Y-160020000D03*
D15*
X149225000Y-160770000D03*
X149225000Y-159270000D03*
D17*
X145049240Y-162880000D03*
X145049240Y-164780000D03*
X147048220Y-163830000D03*
D27*
X167640000Y-168275000D03*
X167640000Y-179705000D03*
D15*
X149225000Y-166890000D03*
X149225000Y-168390000D03*
D13*
X163945000Y-190500000D03*
X162445000Y-190500000D03*
X163945000Y-188595000D03*
X162445000Y-188595000D03*
D17*
X145049240Y-166690000D03*
X145049240Y-168590000D03*
X147048220Y-167640000D03*
D30*
X151350980Y-168275000D03*
X153449020Y-168275000D03*
D23*
X121019000Y-164465000D03*
X119519000Y-164465000D03*
X119519000Y-166370000D03*
X121019000Y-166370000D03*
D15*
X131191000Y-179566000D03*
X131191000Y-178066000D03*
D13*
X139815000Y-167005000D03*
X138315000Y-167005000D03*
D23*
X114669000Y-172085000D03*
X113169000Y-172085000D03*
D11*
X111252000Y-188710000D03*
X111252000Y-187210000D03*
D23*
X121019000Y-168910000D03*
X119519000Y-168910000D03*
D12*
X113284000Y-188960000D03*
X113284000Y-186960000D03*
D11*
X92837000Y-206895000D03*
X92837000Y-208395000D03*
X98679000Y-205474000D03*
X98679000Y-203974000D03*
D23*
X105398000Y-203962000D03*
X103898000Y-203962000D03*
D29*
X101370000Y-209042000D03*
X104370000Y-209042000D03*
D11*
X94742000Y-208395000D03*
X94742000Y-206895000D03*
D21*
X101870000Y-206502000D03*
X103870000Y-206502000D03*
D11*
X107188000Y-207137000D03*
X107188000Y-205637000D03*
D23*
X100596000Y-203962000D03*
X102096000Y-203962000D03*
D36*
X97927160Y-222250000D03*
X102224840Y-222250000D03*
D23*
X92341000Y-216916000D03*
X93841000Y-216916000D03*
D13*
X92341000Y-215011000D03*
X93841000Y-215011000D03*
D23*
X101473000Y-216916000D03*
X99973000Y-216916000D03*
D13*
X93841000Y-218821000D03*
X92341000Y-218821000D03*
D23*
X93841000Y-213106000D03*
X92341000Y-213106000D03*
D40*
X112625000Y-206375000D03*
X109625000Y-206375000D03*
D41*
X103980000Y-215011000D03*
X103980000Y-216281000D03*
X103980000Y-217551000D03*
X103980000Y-218821000D03*
X109380000Y-218821000D03*
X109380000Y-217551000D03*
X109380000Y-216281000D03*
X109380000Y-215011000D03*
D23*
X111645000Y-216916000D03*
X113145000Y-216916000D03*
D13*
X100001422Y-218821000D03*
X101501422Y-218821000D03*
D23*
X113145000Y-213106000D03*
X111645000Y-213106000D03*
X107835000Y-213106000D03*
X109335000Y-213106000D03*
D13*
X101461000Y-215011000D03*
X99961000Y-215011000D03*
X113145000Y-218821000D03*
X111645000Y-218821000D03*
D42*
X106603000Y-227584000D03*
X112903000Y-227584000D03*
X106603000Y-228854000D03*
X112903000Y-228854000D03*
D16*
X115697000Y-225806000D03*
X115697000Y-228706000D03*
D13*
X103771000Y-225425000D03*
X105271000Y-225425000D03*
D11*
X104013000Y-227596000D03*
X104013000Y-229096000D03*
D23*
X112891000Y-225425000D03*
X111391000Y-225425000D03*
D41*
X90632333Y-166542000D03*
X90632333Y-167812000D03*
X90632333Y-169082000D03*
X90632333Y-170352000D03*
X96032333Y-170352000D03*
X96032333Y-169082000D03*
X96032333Y-167812000D03*
X96032333Y-166542000D03*
D13*
X95262000Y-164592000D03*
X96762000Y-164592000D03*
D16*
X98933000Y-166444000D03*
X98933000Y-169344000D03*
D15*
X87884000Y-170815000D03*
X87884000Y-172315000D03*
D11*
X108839000Y-168922000D03*
X108839000Y-170422000D03*
D15*
X108839000Y-165850000D03*
X108839000Y-164350000D03*
X106680000Y-164350000D03*
X106680000Y-165850000D03*
X106934000Y-168922000D03*
X106934000Y-170422000D03*
D43*
X64450000Y-189865000D03*
X69850000Y-189865000D03*
X64450000Y-182880000D03*
X69850000Y-182880000D03*
D15*
X77470000Y-189853000D03*
X77470000Y-188353000D03*
D11*
X75438000Y-189853000D03*
X75438000Y-188353000D03*
X75438000Y-182892000D03*
X75438000Y-184392000D03*
D15*
X77470000Y-182892000D03*
X77470000Y-184392000D03*
D23*
X83058000Y-190754000D03*
X84558000Y-190754000D03*
D11*
X87884000Y-169279000D03*
X87884000Y-167779000D03*
D12*
X85725000Y-169529000D03*
X85725000Y-167529000D03*
D15*
X87884000Y-164731000D03*
X87884000Y-166231000D03*
D13*
X89928000Y-164592000D03*
X91428000Y-164592000D03*
D11*
X79629000Y-167628000D03*
X79629000Y-166128000D03*
D21*
X100600000Y-181102000D03*
X102600000Y-181102000D03*
X98536000Y-181102000D03*
X96536000Y-181102000D03*
D13*
X101969000Y-172212000D03*
X100469000Y-172212000D03*
D23*
X98438524Y-183269000D03*
X96938524Y-183269000D03*
D13*
X105017000Y-172212000D03*
X103517000Y-172212000D03*
D23*
X100596000Y-183261000D03*
X102096000Y-183261000D03*
D44*
X95310960Y-162321240D03*
X95310960Y-161671000D03*
X95310960Y-161020760D03*
X93411040Y-161020760D03*
X93411040Y-161671000D03*
X93411040Y-162321240D03*
D45*
X76354940Y-171787820D03*
X76354940Y-170688000D03*
X76354940Y-169588180D03*
X76354940Y-168488360D03*
X76354940Y-167386000D03*
X76354940Y-166286180D03*
X76354940Y-165186360D03*
X76354940Y-164086540D03*
D46*
X74795380Y-173842680D03*
D47*
X61595000Y-173736000D03*
D48*
X76446380Y-160538160D03*
D49*
X67396360Y-173842680D03*
D47*
X61595000Y-160238440D03*
D50*
X76446380Y-173197520D03*
D51*
X85306000Y-200957000D03*
X85306000Y-203157000D03*
X86906000Y-200957000D03*
X86906000Y-203157000D03*
D11*
X89789000Y-198743000D03*
X89789000Y-197243000D03*
D23*
X83427000Y-203073000D03*
X81927000Y-203073000D03*
D52*
X72771000Y-205646000D03*
X72771000Y-200246000D03*
D15*
X85217000Y-197878000D03*
X85217000Y-199378000D03*
D23*
X83427000Y-200787000D03*
X81927000Y-200787000D03*
D12*
X87630000Y-198993000D03*
X87630000Y-196993000D03*
D15*
X66929000Y-230239000D03*
X66929000Y-228739000D03*
D13*
X64020000Y-226822000D03*
X65520000Y-226822000D03*
D15*
X69723000Y-215658000D03*
X69723000Y-217158000D03*
D13*
X65774000Y-215265000D03*
X64274000Y-215265000D03*
X64516000Y-208534000D03*
X66016000Y-208534000D03*
D12*
X69723000Y-212772500D03*
X69723000Y-210772500D03*
D20*
X64373760Y-212658960D03*
X65024000Y-212658960D03*
X65674240Y-212658960D03*
X65674240Y-210759040D03*
X65024000Y-210759040D03*
X64373760Y-210759040D03*
D53*
X58420000Y-211251800D03*
X58420000Y-212928200D03*
D54*
X58420000Y-215003380D03*
X58420000Y-209176620D03*
D55*
X60718700Y-214551260D03*
X60718700Y-209628740D03*
D56*
X61079380Y-210789520D03*
X61079380Y-211439760D03*
X61079380Y-212090000D03*
X61079380Y-212740240D03*
X61079380Y-213390480D03*
D11*
X67945000Y-208395000D03*
X67945000Y-206895000D03*
D13*
X72759000Y-214376000D03*
X71259000Y-214376000D03*
D41*
X84676000Y-215011000D03*
X84676000Y-216281000D03*
X84676000Y-217551000D03*
X84676000Y-218821000D03*
X90076000Y-218821000D03*
X90076000Y-217551000D03*
X90076000Y-216281000D03*
X90076000Y-215011000D03*
D23*
X82411000Y-216916000D03*
X80911000Y-216916000D03*
X88531000Y-213106000D03*
X90031000Y-213106000D03*
D13*
X82411000Y-215011000D03*
X80911000Y-215011000D03*
X80911000Y-218821000D03*
X82411000Y-218821000D03*
D23*
X76823000Y-223012000D03*
X75323000Y-223012000D03*
D41*
X67785000Y-223012000D03*
X67785000Y-224282000D03*
X67785000Y-225552000D03*
X67785000Y-226822000D03*
X73185000Y-226822000D03*
X73185000Y-225552000D03*
X73185000Y-224282000D03*
X73185000Y-223012000D03*
D15*
X70739000Y-228739000D03*
X70739000Y-230239000D03*
D23*
X65520000Y-224917000D03*
X64020000Y-224917000D03*
X71640000Y-221107000D03*
X73140000Y-221107000D03*
D13*
X65520000Y-223012000D03*
X64020000Y-223012000D03*
D11*
X68834000Y-228739000D03*
X68834000Y-230239000D03*
D23*
X62345000Y-194233800D03*
X60845000Y-194233800D03*
D15*
X66040000Y-201942000D03*
X66040000Y-203442000D03*
X64008000Y-201942000D03*
X64008000Y-203442000D03*
X61976000Y-201942000D03*
X61976000Y-203442000D03*
D57*
X130516000Y-234188000D03*
D58*
X128016000Y-225038000D03*
D57*
X125476000Y-234188000D03*
D11*
X130810000Y-217666000D03*
X130810000Y-216166000D03*
D41*
X135349000Y-204089000D03*
X135349000Y-205359000D03*
X135349000Y-206629000D03*
X135349000Y-207899000D03*
X140749000Y-207899000D03*
X140749000Y-206629000D03*
X140749000Y-205359000D03*
X140749000Y-204089000D03*
D15*
X132842000Y-208292000D03*
X132842000Y-209792000D03*
D17*
X126634240Y-215966000D03*
X126634240Y-217866000D03*
X128633220Y-216916000D03*
D35*
X159832000Y-218143000D03*
X160782000Y-218143000D03*
X161732000Y-218143000D03*
X161732000Y-215943000D03*
X159832000Y-215943000D03*
D15*
X157988000Y-218579000D03*
X157988000Y-220079000D03*
D33*
X164846000Y-217043000D03*
D34*
X167132000Y-210693000D03*
D33*
X169418000Y-217043000D03*
D15*
X159766000Y-212991000D03*
X159766000Y-214491000D03*
D11*
X157988000Y-216777000D03*
X157988000Y-215277000D03*
D36*
X161787840Y-208407000D03*
X157490160Y-208407000D03*
D15*
X161798000Y-212991000D03*
X161798000Y-214491000D03*
D35*
X175961000Y-218016000D03*
X176911000Y-218016000D03*
X177861000Y-218016000D03*
X177861000Y-215816000D03*
X175961000Y-215816000D03*
D36*
X178043840Y-208407000D03*
X173746160Y-208407000D03*
D15*
X174117000Y-218579000D03*
X174117000Y-220079000D03*
D11*
X174117000Y-216777000D03*
X174117000Y-215277000D03*
D15*
X175895000Y-212864000D03*
X175895000Y-214364000D03*
X177927000Y-212864000D03*
X177927000Y-214364000D03*
D33*
X181229000Y-216662000D03*
D34*
X183515000Y-210312000D03*
D33*
X185801000Y-216662000D03*
D13*
X167374000Y-220599000D03*
X165874000Y-220599000D03*
X183884000Y-220599000D03*
X182384000Y-220599000D03*
D30*
X180373020Y-220599000D03*
X178274980Y-220599000D03*
X163863020Y-220599000D03*
X161764980Y-220599000D03*
D35*
X192598000Y-218016000D03*
X193548000Y-218016000D03*
X194498000Y-218016000D03*
X194498000Y-215816000D03*
X192598000Y-215816000D03*
D15*
X194564000Y-212864000D03*
X194564000Y-214364000D03*
X190627000Y-218579000D03*
X190627000Y-220079000D03*
D11*
X190627000Y-216777000D03*
X190627000Y-215277000D03*
D15*
X192532000Y-212876000D03*
X192532000Y-214376000D03*
D30*
X196883020Y-220599000D03*
X194784980Y-220599000D03*
D36*
X194553840Y-208407000D03*
X190256160Y-208407000D03*
D16*
X98933000Y-64844000D03*
X98933000Y-67744000D03*
D17*
X126634240Y-114366000D03*
X126634240Y-116266000D03*
X128633220Y-115316000D03*
D18*
X92430000Y-86202000D03*
X92430000Y-86702000D03*
X92430000Y-87202000D03*
X92430000Y-87702000D03*
X92430000Y-88202000D03*
X92430000Y-88702000D03*
X92430000Y-89202000D03*
X92430000Y-89702000D03*
X92430000Y-90202000D03*
X92430000Y-90702000D03*
X92430000Y-91202000D03*
X92430000Y-91702000D03*
X92430000Y-92202000D03*
X92430000Y-92702000D03*
X92430000Y-93202000D03*
X92430000Y-93702000D03*
X92430000Y-94202000D03*
X92430000Y-94702000D03*
X92430000Y-95202000D03*
X92430000Y-95702000D03*
X92430000Y-96202000D03*
X92430000Y-96702000D03*
X92430000Y-97202000D03*
X92430000Y-97702000D03*
X92430000Y-98202000D03*
D19*
X94330000Y-100102000D03*
X94830000Y-100102000D03*
X95330000Y-100102000D03*
X95830000Y-100102000D03*
X96330000Y-100102000D03*
X96830000Y-100102000D03*
X97330000Y-100102000D03*
X97830000Y-100102000D03*
X98330000Y-100102000D03*
X98830000Y-100102000D03*
X99330000Y-100102000D03*
X99830000Y-100102000D03*
X100330000Y-100102000D03*
X100830000Y-100102000D03*
X101330000Y-100102000D03*
X101830000Y-100102000D03*
X102330000Y-100102000D03*
X102830000Y-100102000D03*
X103330000Y-100102000D03*
X103830000Y-100102000D03*
X104330000Y-100102000D03*
X104830000Y-100102000D03*
X105330000Y-100102000D03*
X105830000Y-100102000D03*
X106330000Y-100102000D03*
D18*
X108230000Y-98202000D03*
X108230000Y-97702000D03*
X108230000Y-97202000D03*
X108230000Y-96702000D03*
X108230000Y-96202000D03*
X108230000Y-95702000D03*
X108230000Y-95202000D03*
X108230000Y-94702000D03*
X108230000Y-94202000D03*
X108230000Y-93702000D03*
X108230000Y-93202000D03*
X108230000Y-92702000D03*
X108230000Y-92202000D03*
X108230000Y-91702000D03*
X108230000Y-91202000D03*
X108230000Y-90702000D03*
X108230000Y-90202000D03*
X108230000Y-89702000D03*
X108230000Y-89202000D03*
X108230000Y-88702000D03*
X108230000Y-88202000D03*
X108230000Y-87702000D03*
X108230000Y-87202000D03*
X108230000Y-86702000D03*
X108230000Y-86202000D03*
D19*
X106330000Y-84302000D03*
X105830000Y-84302000D03*
X105330000Y-84302000D03*
X104830000Y-84302000D03*
X104330000Y-84302000D03*
X103830000Y-84302000D03*
X103330000Y-84302000D03*
X102830000Y-84302000D03*
X102330000Y-84302000D03*
X101830000Y-84302000D03*
X101330000Y-84302000D03*
X100830000Y-84302000D03*
X100330000Y-84302000D03*
X99830000Y-84302000D03*
X99330000Y-84302000D03*
X98830000Y-84302000D03*
X98330000Y-84302000D03*
X97830000Y-84302000D03*
X97330000Y-84302000D03*
X96830000Y-84302000D03*
X96330000Y-84302000D03*
X95830000Y-84302000D03*
X95330000Y-84302000D03*
X94830000Y-84302000D03*
X94330000Y-84302000D03*
D11*
X130810000Y-116066000D03*
X130810000Y-114566000D03*
D23*
X83427000Y-99187000D03*
X81927000Y-99187000D03*
X100596000Y-102362000D03*
X102096000Y-102362000D03*
D12*
X87630000Y-91583000D03*
X87630000Y-93583000D03*
D30*
X163863020Y-118999000D03*
X161764980Y-118999000D03*
X180373020Y-118999000D03*
X178274980Y-118999000D03*
X196883020Y-118999000D03*
X194784980Y-118999000D03*
X213393020Y-118999000D03*
X211294980Y-118999000D03*
X229268020Y-118999000D03*
X227169980Y-118999000D03*
D13*
X139815000Y-65405000D03*
X138315000Y-65405000D03*
D15*
X77470000Y-81292000D03*
X77470000Y-82792000D03*
X77470000Y-88253000D03*
X77470000Y-86753000D03*
D13*
X105017000Y-70612000D03*
X103517000Y-70612000D03*
X101969000Y-70612000D03*
X100469000Y-70612000D03*
D15*
X66040000Y-100342000D03*
X66040000Y-101842000D03*
X64008000Y-100342000D03*
X64008000Y-101842000D03*
X61976000Y-100342000D03*
X61976000Y-101842000D03*
D13*
X64516000Y-106934000D03*
X66016000Y-106934000D03*
D15*
X106934000Y-67322000D03*
X106934000Y-68822000D03*
X106680000Y-62750000D03*
X106680000Y-64250000D03*
D13*
X115836000Y-61976000D03*
X117336000Y-61976000D03*
X117844000Y-70485000D03*
X116344000Y-70485000D03*
D15*
X108839000Y-64250000D03*
X108839000Y-62750000D03*
X161798000Y-111391000D03*
X161798000Y-112891000D03*
X177927000Y-111264000D03*
X177927000Y-112764000D03*
X157988000Y-116979000D03*
X157988000Y-118479000D03*
X174117000Y-116979000D03*
X174117000Y-118479000D03*
X159766000Y-111391000D03*
X159766000Y-112891000D03*
X175895000Y-111264000D03*
X175895000Y-112764000D03*
D13*
X167374000Y-118999000D03*
X165874000Y-118999000D03*
X183884000Y-118999000D03*
X182384000Y-118999000D03*
D15*
X194564000Y-111264000D03*
X194564000Y-112764000D03*
X211074000Y-111264000D03*
X211074000Y-112764000D03*
X190627000Y-116979000D03*
X190627000Y-118479000D03*
X207264000Y-116979000D03*
X207264000Y-118479000D03*
X192532000Y-111276000D03*
X192532000Y-112776000D03*
X209169000Y-111264000D03*
X209169000Y-112764000D03*
D13*
X200394000Y-118999000D03*
X198894000Y-118999000D03*
X216904000Y-118999000D03*
X215404000Y-118999000D03*
D15*
X226822000Y-111264000D03*
X226822000Y-112764000D03*
X223012000Y-116979000D03*
X223012000Y-118479000D03*
X224917000Y-111264000D03*
X224917000Y-112764000D03*
D13*
X232767000Y-118999000D03*
X231267000Y-118999000D03*
X113145000Y-117221000D03*
X111645000Y-117221000D03*
X100001422Y-117221000D03*
X101501422Y-117221000D03*
X101461000Y-113411000D03*
X99961000Y-113411000D03*
X80911000Y-117221000D03*
X82411000Y-117221000D03*
X82411000Y-113411000D03*
X80911000Y-113411000D03*
X93841000Y-117221000D03*
X92341000Y-117221000D03*
X103771000Y-123825000D03*
X105271000Y-123825000D03*
X92341000Y-113411000D03*
X93841000Y-113411000D03*
D16*
X115697000Y-124206000D03*
X115697000Y-127106000D03*
D13*
X64020000Y-125222000D03*
X65520000Y-125222000D03*
X65520000Y-121412000D03*
X64020000Y-121412000D03*
D15*
X66929000Y-128639000D03*
X66929000Y-127139000D03*
X70739000Y-127139000D03*
X70739000Y-128639000D03*
X106045000Y-80415000D03*
X106045000Y-81915000D03*
D13*
X118860000Y-94615000D03*
X117360000Y-94615000D03*
D15*
X85217000Y-96278000D03*
X85217000Y-97778000D03*
D13*
X111010000Y-101600000D03*
X112510000Y-101600000D03*
X72759000Y-112776000D03*
X71259000Y-112776000D03*
D15*
X94742000Y-102247000D03*
X94742000Y-103747000D03*
X96774000Y-102247000D03*
X96774000Y-103747000D03*
D13*
X99937000Y-105918000D03*
X98437000Y-105918000D03*
D15*
X96774000Y-106795000D03*
X96774000Y-105295000D03*
D52*
X72771000Y-104046000D03*
X72771000Y-98646000D03*
D43*
X64450000Y-81280000D03*
X69850000Y-81280000D03*
X64450000Y-88265000D03*
X69850000Y-88265000D03*
D24*
X188923000Y-70395000D03*
X188923000Y-71045000D03*
X188923000Y-71695000D03*
X188923000Y-72345000D03*
X188923000Y-72995000D03*
X188923000Y-73645000D03*
X188923000Y-74295000D03*
X194823000Y-74295000D03*
X194823000Y-73645000D03*
X194823000Y-72995000D03*
X194823000Y-72345000D03*
X194823000Y-71695000D03*
X194823000Y-71045000D03*
X194823000Y-70395000D03*
D25*
X191873000Y-72345000D03*
D38*
X117138999Y-68490000D03*
X117138999Y-67840000D03*
X117138999Y-67190000D03*
X117138999Y-66540000D03*
X117138999Y-65890000D03*
X117138999Y-65240000D03*
X117138999Y-64590000D03*
X117138999Y-63940000D03*
X111238999Y-63940000D03*
X111238999Y-64590000D03*
X111238999Y-65240000D03*
X111238999Y-65890000D03*
X111238999Y-66540000D03*
X111238999Y-67190000D03*
X111238999Y-67840000D03*
X111238999Y-68490000D03*
D41*
X135349000Y-102489000D03*
X135349000Y-103759000D03*
X135349000Y-105029000D03*
X135349000Y-106299000D03*
X140749000Y-106299000D03*
X140749000Y-105029000D03*
X140749000Y-103759000D03*
X140749000Y-102489000D03*
X90632333Y-64942000D03*
X90632333Y-66212000D03*
X90632333Y-67482000D03*
X90632333Y-68752000D03*
X96032333Y-68752000D03*
X96032333Y-67482000D03*
X96032333Y-66212000D03*
X96032333Y-64942000D03*
D11*
X67945000Y-106795000D03*
X67945000Y-105295000D03*
X227457000Y-78613000D03*
X227457000Y-77113000D03*
D23*
X62345000Y-92633800D03*
X60845000Y-92633800D03*
D11*
X79629000Y-66028000D03*
X79629000Y-64528000D03*
D12*
X85725000Y-67929000D03*
X85725000Y-65929000D03*
D37*
X220980000Y-93789500D03*
X220980000Y-101790500D03*
D28*
X204279500Y-58420000D03*
X212280500Y-58420000D03*
D23*
X181725000Y-61595000D03*
X180225000Y-61595000D03*
X198767000Y-48133000D03*
X200267000Y-48133000D03*
D29*
X190476000Y-66675000D03*
X187476000Y-66675000D03*
X196064000Y-66675000D03*
X193064000Y-66675000D03*
D23*
X184785000Y-66675000D03*
X183285000Y-66675000D03*
X198640000Y-66675000D03*
X200140000Y-66675000D03*
D11*
X175514000Y-71640000D03*
X175514000Y-73140000D03*
X208280000Y-71640000D03*
X208280000Y-73140000D03*
D21*
X178705000Y-83058000D03*
X180705000Y-83058000D03*
X178705000Y-80518000D03*
X180705000Y-80518000D03*
D22*
X177289460Y-88900000D03*
X183390540Y-88900000D03*
D21*
X195310000Y-76581000D03*
X193310000Y-76581000D03*
D22*
X206377540Y-88900000D03*
X200276460Y-88900000D03*
D21*
X204835000Y-83185000D03*
X202835000Y-83185000D03*
X204835000Y-80645000D03*
X202835000Y-80645000D03*
D23*
X188861000Y-78740000D03*
X190361000Y-78740000D03*
X194552000Y-78740000D03*
X193052000Y-78740000D03*
D11*
X108839000Y-67322000D03*
X108839000Y-68822000D03*
D23*
X121019000Y-67310000D03*
X119519000Y-67310000D03*
X114669000Y-70485000D03*
X113169000Y-70485000D03*
X119519000Y-64770000D03*
X121019000Y-64770000D03*
X121019000Y-62865000D03*
X119519000Y-62865000D03*
D12*
X130810000Y-105394000D03*
X130810000Y-103394000D03*
D11*
X127889000Y-103112000D03*
X127889000Y-101612000D03*
X132842000Y-105144000D03*
X132842000Y-103644000D03*
X87884000Y-67679000D03*
X87884000Y-66179000D03*
X75438000Y-81292000D03*
X75438000Y-82792000D03*
X75438000Y-88253000D03*
X75438000Y-86753000D03*
X157988000Y-115177000D03*
X157988000Y-113677000D03*
X174117000Y-115177000D03*
X174117000Y-113677000D03*
X190627000Y-115177000D03*
X190627000Y-113677000D03*
X207264000Y-115177000D03*
X207264000Y-113677000D03*
X223012000Y-115177000D03*
X223012000Y-113677000D03*
D23*
X107835000Y-111506000D03*
X109335000Y-111506000D03*
X113145000Y-111506000D03*
X111645000Y-111506000D03*
X101473000Y-115316000D03*
X99973000Y-115316000D03*
X111645000Y-115316000D03*
X113145000Y-115316000D03*
X71640000Y-119507000D03*
X73140000Y-119507000D03*
X82411000Y-115316000D03*
X80911000Y-115316000D03*
X88531000Y-111506000D03*
X90031000Y-111506000D03*
D11*
X104013000Y-125996000D03*
X104013000Y-127496000D03*
D23*
X92341000Y-115316000D03*
X93841000Y-115316000D03*
X76823000Y-121412000D03*
X75323000Y-121412000D03*
X112891000Y-123825000D03*
X111391000Y-123825000D03*
X65520000Y-123317000D03*
X64020000Y-123317000D03*
X93841000Y-111506000D03*
X92341000Y-111506000D03*
D11*
X68834000Y-127139000D03*
X68834000Y-128639000D03*
X115570000Y-96405000D03*
X115570000Y-97905000D03*
D23*
X83058000Y-89154000D03*
X84558000Y-89154000D03*
D11*
X89789000Y-97143000D03*
X89789000Y-95643000D03*
D12*
X87630000Y-97393000D03*
X87630000Y-95393000D03*
D11*
X111252000Y-99556000D03*
X111252000Y-98056000D03*
X107188000Y-105537000D03*
X107188000Y-104037000D03*
D12*
X113284000Y-99679000D03*
X113284000Y-97679000D03*
D23*
X83427000Y-101473000D03*
X81927000Y-101473000D03*
X98438524Y-81669000D03*
X96938524Y-81669000D03*
D11*
X89797000Y-91760476D03*
X89797000Y-93260476D03*
X111252000Y-87110000D03*
X111252000Y-85610000D03*
D21*
X98536000Y-79502000D03*
X96536000Y-79502000D03*
D12*
X113284000Y-87360000D03*
X113284000Y-85360000D03*
D21*
X101870000Y-104902000D03*
X103870000Y-104902000D03*
D29*
X101370000Y-107442000D03*
X104370000Y-107442000D03*
D11*
X94742000Y-106795000D03*
X94742000Y-105295000D03*
D23*
X105398000Y-102362000D03*
X103898000Y-102362000D03*
D11*
X98679000Y-103874000D03*
X98679000Y-102374000D03*
X89789000Y-90031000D03*
X89789000Y-88531000D03*
X111252000Y-88785000D03*
X111252000Y-90285000D03*
D23*
X100596000Y-81661000D03*
X102096000Y-81661000D03*
D21*
X100600000Y-79502000D03*
X102600000Y-79502000D03*
D11*
X92837000Y-105295000D03*
X92837000Y-106795000D03*
D26*
X182880000Y-69623940D03*
X182880000Y-76426060D03*
X200660000Y-69623940D03*
X200660000Y-76426060D03*
D30*
X151350980Y-57785000D03*
X153449020Y-57785000D03*
X151350980Y-62230000D03*
X153449020Y-62230000D03*
X151350980Y-66675000D03*
X153449020Y-66675000D03*
X177292000Y-63914020D03*
X177292000Y-61815980D03*
D36*
X161787840Y-106807000D03*
X157490160Y-106807000D03*
X178043840Y-106807000D03*
X173746160Y-106807000D03*
X194553840Y-106807000D03*
X190256160Y-106807000D03*
X211063840Y-106807000D03*
X206766160Y-106807000D03*
X226938840Y-106807000D03*
X222641160Y-106807000D03*
X97927160Y-120650000D03*
X102224840Y-120650000D03*
D17*
X140015000Y-67579240D03*
X138115000Y-67579240D03*
X139065000Y-69578220D03*
X145049240Y-57470000D03*
X145049240Y-59370000D03*
X147048220Y-58420000D03*
X145049240Y-61280000D03*
X145049240Y-63180000D03*
X147048220Y-62230000D03*
X145049240Y-65090000D03*
X145049240Y-66990000D03*
X147048220Y-66040000D03*
D33*
X164846000Y-115443000D03*
D34*
X167132000Y-109093000D03*
D33*
X169418000Y-115443000D03*
X181229000Y-115062000D03*
D34*
X183515000Y-108712000D03*
D33*
X185801000Y-115062000D03*
X197739000Y-115062000D03*
D34*
X200025000Y-108712000D03*
D33*
X202311000Y-115062000D03*
X214249000Y-115062000D03*
D34*
X216535000Y-108712000D03*
D33*
X218821000Y-115062000D03*
X230124000Y-115062000D03*
D34*
X232410000Y-108712000D03*
D33*
X234696000Y-115062000D03*
D13*
X163945000Y-86995000D03*
X162445000Y-86995000D03*
D15*
X205105000Y-95135000D03*
X205105000Y-96635000D03*
D13*
X163945000Y-88900000D03*
X162445000Y-88900000D03*
D15*
X207010000Y-95135000D03*
X207010000Y-96635000D03*
X187325000Y-82665000D03*
X187325000Y-81165000D03*
X196215000Y-82550000D03*
X196215000Y-81050000D03*
X177292000Y-71640000D03*
X177292000Y-73140000D03*
X206375000Y-71640000D03*
X206375000Y-73140000D03*
D13*
X188873000Y-80645000D03*
X190373000Y-80645000D03*
X194552000Y-80645000D03*
X193052000Y-80645000D03*
X188861000Y-82677000D03*
X190361000Y-82677000D03*
X194552000Y-82677000D03*
X193052000Y-82677000D03*
X134505000Y-100330000D03*
X136005000Y-100330000D03*
D15*
X132842000Y-102096000D03*
X132842000Y-100596000D03*
X132842000Y-106692000D03*
X132842000Y-108192000D03*
D13*
X139839000Y-100457000D03*
X141339000Y-100457000D03*
X89928000Y-62992000D03*
X91428000Y-62992000D03*
D15*
X87884000Y-63131000D03*
X87884000Y-64631000D03*
X87884000Y-69215000D03*
X87884000Y-70715000D03*
D13*
X95262000Y-62992000D03*
X96762000Y-62992000D03*
D15*
X149225000Y-59170000D03*
X149225000Y-57670000D03*
X149225000Y-62980000D03*
X149225000Y-61480000D03*
X149225000Y-65290000D03*
X149225000Y-66790000D03*
D13*
X181725000Y-63500000D03*
X180225000Y-63500000D03*
D15*
X131191000Y-77966000D03*
X131191000Y-76466000D03*
D35*
X159832000Y-116543000D03*
X160782000Y-116543000D03*
X161732000Y-116543000D03*
X161732000Y-114343000D03*
X159832000Y-114343000D03*
X175961000Y-116416000D03*
X176911000Y-116416000D03*
X177861000Y-116416000D03*
X177861000Y-114216000D03*
X175961000Y-114216000D03*
X192598000Y-116416000D03*
X193548000Y-116416000D03*
X194498000Y-116416000D03*
X194498000Y-114216000D03*
X192598000Y-114216000D03*
X209235000Y-116416000D03*
X210185000Y-116416000D03*
X211135000Y-116416000D03*
X211135000Y-114216000D03*
X209235000Y-114216000D03*
X224983000Y-116416000D03*
X225933000Y-116416000D03*
X226883000Y-116416000D03*
X226883000Y-114216000D03*
X224983000Y-114216000D03*
D41*
X103980000Y-113411000D03*
X103980000Y-114681000D03*
X103980000Y-115951000D03*
X103980000Y-117221000D03*
X109380000Y-117221000D03*
X109380000Y-115951000D03*
X109380000Y-114681000D03*
X109380000Y-113411000D03*
X84676000Y-113411000D03*
X84676000Y-114681000D03*
X84676000Y-115951000D03*
X84676000Y-117221000D03*
X90076000Y-117221000D03*
X90076000Y-115951000D03*
X90076000Y-114681000D03*
X90076000Y-113411000D03*
X67785000Y-121412000D03*
X67785000Y-122682000D03*
X67785000Y-123952000D03*
X67785000Y-125222000D03*
X73185000Y-125222000D03*
X73185000Y-123952000D03*
X73185000Y-122682000D03*
X73185000Y-121412000D03*
D17*
X117109240Y-96205000D03*
X117109240Y-98105000D03*
X119108220Y-97155000D03*
D29*
X179475000Y-59436000D03*
X182475000Y-59436000D03*
D23*
X211340000Y-99060000D03*
X212840000Y-99060000D03*
D29*
X213360000Y-101600000D03*
X210360000Y-101600000D03*
D31*
X191770000Y-54870000D03*
D32*
X189230000Y-45720000D03*
X194310000Y-45720000D03*
D53*
X58420000Y-109651800D03*
X58420000Y-111328200D03*
D54*
X58420000Y-113403380D03*
X58420000Y-107576620D03*
D55*
X60718700Y-112951260D03*
X60718700Y-108028740D03*
D56*
X61079380Y-109189520D03*
X61079380Y-109839760D03*
X61079380Y-110490000D03*
X61079380Y-111140240D03*
X61079380Y-111790480D03*
D57*
X130516000Y-132588000D03*
D58*
X128016000Y-123438000D03*
D57*
X125476000Y-132588000D03*
D51*
X85306000Y-99357000D03*
X85306000Y-101557000D03*
X86906000Y-99357000D03*
X86906000Y-101557000D03*
D20*
X226298760Y-88960960D03*
X226949000Y-88960960D03*
X227599240Y-88960960D03*
X227599240Y-87061040D03*
X226949000Y-87061040D03*
X226298760Y-87061040D03*
D44*
X95310960Y-60721240D03*
X95310960Y-60071000D03*
X95310960Y-59420760D03*
X93411040Y-59420760D03*
X93411040Y-60071000D03*
X93411040Y-60721240D03*
D20*
X64373760Y-111058960D03*
X65024000Y-111058960D03*
X65674240Y-111058960D03*
X65674240Y-109159040D03*
X65024000Y-109159040D03*
X64373760Y-109159040D03*
D12*
X69723000Y-111172500D03*
X69723000Y-109172500D03*
D14*
X83820000Y-94210000D03*
X83820000Y-91210000D03*
D40*
X112625000Y-104775000D03*
X109625000Y-104775000D03*
D39*
X130175000Y-69855000D03*
X130175000Y-59055000D03*
D42*
X106603000Y-125984000D03*
X112903000Y-125984000D03*
X106603000Y-127254000D03*
X112903000Y-127254000D03*
D16*
X143764000Y-102817000D03*
X143764000Y-105717000D03*
D13*
X65774000Y-113665000D03*
X64274000Y-113665000D03*
D45*
X76354940Y-70187820D03*
X76354940Y-69088000D03*
X76354940Y-67988180D03*
X76354940Y-66888360D03*
X76354940Y-65786000D03*
X76354940Y-64686180D03*
X76354940Y-63586360D03*
X76354940Y-62486540D03*
D46*
X74795380Y-72242680D03*
D47*
X61595000Y-72136000D03*
D48*
X76446380Y-58938160D03*
D49*
X67396360Y-72242680D03*
D47*
X61595000Y-58638440D03*
D50*
X76446380Y-71597520D03*
D15*
X69723000Y-114058000D03*
X69723000Y-115558000D03*
D27*
X167640000Y-66675000D03*
X167640000Y-78105000D03*
X215900000Y-67437000D03*
X215900000Y-78867000D03*
M02*
